SplineFontDB: 3.2
FontName: Spiffy-all
FullName: Spiffy all
FamilyName: Spiffy
Weight: Regular
Copyright: Copyright (c) 2023, Razvii
UComments: "2023-1-6: Created with FontForge (http://fontforge.org)"
Version: 001.000
ItalicAngle: 0
UnderlinePosition: -100
UnderlineWidth: 50
Ascent: 800
Descent: 200
InvalidEm: 0
LayerCount: 2
Layer: 0 0 "Back" 1
Layer: 1 0 "Fore" 0
XUID: [1021 980 -593230808 14091715]
OS2Version: 0
OS2_WeightWidthSlopeOnly: 0
OS2_UseTypoMetrics: 1
CreationTime: 1673019662
ModificationTime: 1673022774
OS2TypoAscent: 0
OS2TypoAOffset: 1
OS2TypoDescent: 0
OS2TypoDOffset: 1
OS2TypoLinegap: 0
OS2WinAscent: 0
OS2WinAOffset: 1
OS2WinDescent: 0
OS2WinDOffset: 1
HheadAscent: 0
HheadAOffset: 1
HheadDescent: 0
HheadDOffset: 1
OS2Vendor: 'PfEd'
MarkAttachClasses: 1
DEI: 91125
Encoding: ISO8859-1
UnicodeInterp: none
NameList: AGL For New Fonts
DisplaySize: -48
AntiAlias: 1
FitToEm: 0
WinInfo: 38 19 7
BeginPrivate: 0
EndPrivate
BeginChars: 256 62

StartChar: A
Encoding: 65 65 0
Width: 1000
LayerCount: 2
Fore
SplineSet
417.678710938 740.909179688 m 0
 443.814453125 746.590820312 477.905273438 748.86328125 493.814453125 745.454101562 c 0
 531.314453125 738.63671875 618.814453125 667.045898438 618.814453125 644.318359375 c 0
 618.814453125 589.772460938 798.360351562 227.272460938 869.951171875 136.36328125 c 0
 943.814453125 43.181640625 924.49609375 -15.9091796875 788.1328125 -105.681640625 c 0
 730.178710938 -144.318359375 698.360351562 -142.045898438 606.314453125 -94.318359375 c 0
 561.99609375 -70.4541015625 506.314453125 -52.2724609375 466.541992188 -47.7275390625 c 0
 401.76953125 -38.63671875 400.6328125 -39.7724609375 361.99609375 -79.5458984375 c 0
 340.405273438 -102.272460938 301.76953125 -130.681640625 277.905273438 -143.181640625 c 0
 236.99609375 -163.63671875 229.041992188 -164.772460938 194.951171875 -150 c 0
 142.678710938 -128.409179688 107.451171875 -80.681640625 107.451171875 -32.9541015625 c 0
 107.451171875 -11.36328125 101.76953125 15.9091796875 94.951171875 29.5458984375 c 0
 77.9052734375 60.2275390625 90.4052734375 98.86328125 130.178710938 145.454101562 c 0
 167.678710938 187.5 236.99609375 384.090820312 249.49609375 479.545898438 c 0
 252.905273438 509.090820312 258.586914062 548.86328125 261.99609375 569.318359375 c 0
 265.405273438 589.772460938 290.405273438 634.090820312 317.678710938 668.181640625 c 0
 359.723632812 718.181640625 377.905273438 732.954101562 417.678710938 740.909179688 c 0
508.586914062 632.954101562 m 0
 455.178710938 692.045898438 365.405273438 621.590820312 352.905273438 509.090820312 c 0
 341.541992188 413.63671875 319.951171875 337.5 288.1328125 275 c 0
 282.451171875 263.63671875 277.905273438 245.454101562 277.905273438 235.227539062 c 0
 277.905273438 198.86328125 248.360351562 130.681640625 221.086914062 101.13671875 c 0
 196.086914062 73.86328125 194.951171875 71.5908203125 214.26953125 51.13671875 c 0
 230.178710938 34.0908203125 231.314453125 23.86328125 222.223632812 5.681640625 c 0
 206.314453125 -23.86328125 206.314453125 -63.63671875 222.223632812 -63.63671875 c 0
 249.49609375 -63.63671875 300.6328125 -14.7724609375 309.723632812 19.318359375 c 2
 318.814453125 55.681640625 l 1
 404.041992188 52.2724609375 l 2
 496.086914062 47.7275390625 617.678710938 14.7724609375 665.405273438 -19.318359375 c 0
 708.586914062 -50 721.086914062 -46.5908203125 777.905273438 3.4091796875 c 2
 829.041992188 48.86328125 l 1
 798.360351562 80.681640625 l 2
 773.360351562 106.818359375 630.178710938 347.727539062 630.178710938 363.63671875 c 0
 630.178710938 365.909179688 617.678710938 394.318359375 602.905273438 427.272460938 c 0
 586.99609375 461.36328125 564.26953125 515.909179688 550.6328125 550 c 0
 536.99609375 584.090820312 517.678710938 621.590820312 508.586914062 632.954101562 c 0
418.814453125 348.86328125 m 0
 425.6328125 365.909179688 436.99609375 379.545898438 443.814453125 379.545898438 c 0
 461.99609375 379.545898438 555.178710938 186.36328125 543.814453125 175 c 0
 538.1328125 170.454101562 496.086914062 163.63671875 450.6328125 160.227539062 c 0
 385.860351562 156.818359375 365.405273438 159.090820312 360.860351562 170.454101562 c 0
 355.178710938 184.090820312 371.086914062 231.818359375 418.814453125 348.86328125 c 0
EndSplineSet
Validated: 33
EndChar

StartChar: B
Encoding: 66 66 1
Width: 1000
HStem: -147.728 81.8184<303.631 495.641> 425 120.454<415.736 468.11>
LayerCount: 2
Fore
SplineSet
536.681640625 718.181640625 m 0
 651.454101562 732.954101562 751.454101562 713.63671875 796.909179688 669.318359375 c 0
 825.318359375 640.909179688 818.5 582.954101562 781 523.86328125 c 2
 746.909179688 470.454101562 l 1
 799.181640625 419.318359375 l 1
 851.454101562 369.318359375 l 1
 846.909179688 297.727539062 l 2
 840.090820312 192.045898438 795.772460938 109.090820312 691.2265625 3.4091796875 c 0
 576.454101562 -109.090820312 502.590820312 -146.590820312 390.090820312 -147.727539062 c 0
 300.318359375 -148.86328125 267.36328125 -134.090820312 213.954101562 -71.5908203125 c 0
 145.772460938 6.818359375 140.090820312 61.36328125 194.635742188 112.5 c 0
 232.135742188 146.590820312 233.272460938 150 221.909179688 198.86328125 c 0
 216.2265625 226.13671875 208.272460938 279.545898438 204.86328125 317.045898438 c 0
 201.454101562 356.818359375 190.090820312 396.590820312 177.590820312 411.36328125 c 0
 149.181640625 447.727539062 140.090820312 497.727539062 157.135742188 529.545898438 c 0
 165.090820312 544.318359375 201.454101562 593.181640625 238.954101562 639.772460938 c 2
 307.135742188 722.727539062 l 1
 387.818359375 715.909179688 l 2
 432.135742188 712.5 499.181640625 713.63671875 536.681640625 718.181640625 c 0
725.318359375 622.727539062 m 0
 699.181640625 646.590820312 569.635742188 655.681640625 496.909179688 639.772460938 c 0
 468.5 634.090820312 421.909179688 631.818359375 392.36328125 635.227539062 c 2
 340.090820312 640.909179688 l 1
 287.818359375 573.86328125 l 2
 229.86328125 498.86328125 225.318359375 481.818359375 258.272460938 461.36328125 c 0
 276.454101562 450 281 435.227539062 281 380.681640625 c 0
 281 343.181640625 287.818359375 280.681640625 296.909179688 240.909179688 c 0
 306 201.13671875 317.36328125 138.63671875 321.909179688 102.272460938 c 2
 329.86328125 35.2275390625 l 1
 287.818359375 42.0458984375 l 2
 234.409179688 50 233.272460938 30.681640625 284.409179688 -26.13671875 c 0
 320.772460938 -64.7724609375 326.454101562 -67.0458984375 392.36328125 -65.9091796875 c 0
 470.772460938 -64.7724609375 519.635742188 -43.181640625 603.7265625 26.13671875 c 0
 699.181640625 106.818359375 759.409179688 195.454101562 774.181640625 279.545898438 c 0
 785.544921875 340.909179688 766.2265625 365.909179688 682.135742188 404.545898438 c 2
 608.272460938 437.5 l 1
 665.090820312 496.590820312 l 2
 742.36328125 578.409179688 751.454101562 598.86328125 725.318359375 622.727539062 c 0
457.135742188 545.454101562 m 0
 543.5 571.590820312 610.544921875 560.227539062 595.772460938 522.727539062 c 0
 588.954101562 506.818359375 436.681640625 425 412.818359375 425 c 0
 408.272460938 425 406 448.86328125 408.272460938 478.409179688 c 0
 411.681640625 530.681640625 412.818359375 532.954101562 457.135742188 545.454101562 c 0
424.181640625 313.63671875 m 0
 434.409179688 329.545898438 565.090820312 323.86328125 601.454101562 304.545898438 c 0
 634.409179688 287.5 635.544921875 284.090820312 631 234.090820312 c 0
 623.044921875 161.36328125 571.909179688 79.5458984375 517.36328125 54.5458984375 c 0
 451.454101562 25 445.772460938 32.9541015625 432.135742188 176.13671875 c 0
 424.181640625 246.590820312 421.909179688 309.090820312 424.181640625 313.63671875 c 0
553.7265625 230.681640625 m 0
 553.7265625 237.5 543.5 243.181640625 531 243.181640625 c 0
 513.954101562 243.181640625 508.272460938 235.227539062 508.272460938 215.909179688 c 0
 508.272460938 200 512.818359375 185.227539062 518.5 180.681640625 c 0
 529.86328125 173.86328125 553.7265625 209.090820312 553.7265625 230.681640625 c 0
EndSplineSet
Validated: 33
EndChar

StartChar: C
Encoding: 67 67 2
Width: 1000
HStem: -177.272 409.091<442.536 756.173>
LayerCount: 2
Fore
SplineSet
458.4453125 686.36328125 m 0
 565.263671875 745.454101562 626.626953125 743.181640625 699.354492188 677.272460938 c 0
 753.900390625 631.818359375 762.991210938 606.818359375 762.991210938 504.545898438 c 0
 762.991210938 393.181640625 756.172851562 377.272460938 674.354492188 306.818359375 c 0
 626.626953125 265.909179688 562.991210938 231.818359375 533.4453125 231.818359375 c 0
 478.900390625 231.818359375 469.809570312 215.909179688 499.354492188 168.181640625 c 0
 515.263671875 145.454101562 540.263671875 150 619.809570312 184.090820312 c 0
 674.354492188 211.36328125 735.717773438 231.818359375 756.172851562 231.818359375 c 0
 815.263671875 231.818359375 874.354492188 150 858.4453125 86.36328125 c 0
 833.4453125 -13.63671875 576.626953125 -177.272460938 442.536132812 -177.272460938 c 0
 222.08203125 -177.272460938 62.9912109375 152.272460938 176.626953125 375 c 0
 237.991210938 490.909179688 372.08203125 640.909179688 458.4453125 686.36328125 c 0
640.263671875 584.090820312 m 0
 592.536132812 643.181640625 528.900390625 620.454101562 419.809570312 511.36328125 c 0
 274.354492188 361.36328125 224.354492188 245.454101562 256.172851562 127.272460938 c 0
 310.717773438 -70.4541015625 437.991210938 -113.63671875 622.08203125 2.2724609375 c 0
 787.991210938 109.090820312 799.354492188 154.545898438 635.717773438 70.4541015625 c 0
 515.263671875 9.0908203125 442.536132812 27.2724609375 399.354492188 129.545898438 c 0
 353.900390625 238.63671875 358.4453125 315.909179688 415.263671875 406.818359375 c 0
 469.809570312 495.454101562 517.536132812 495.454101562 508.4453125 404.545898438 c 0
 501.626953125 340.909179688 535.717773438 327.272460938 597.08203125 375 c 0
 649.354492188 413.63671875 674.354492188 543.181640625 640.263671875 584.090820312 c 0
EndSplineSet
Validated: 33
EndChar

StartChar: D
Encoding: 68 68 3
Width: 1000
HStem: -171.591 85.2275<306.814 386.633>
VStem: 781.665 79.5449<299.716 404.721>
LayerCount: 2
Fore
SplineSet
286.209960938 711.36328125 m 0
 357.80078125 723.86328125 558.9375 653.409179688 693.028320312 569.318359375 c 0
 800.983398438 501.13671875 861.209960938 427.272460938 861.209960938 360.227539062 c 0
 861.209960938 238.63671875 653.255859375 -6.818359375 445.30078125 -131.818359375 c 0
 389.619140625 -165.909179688 369.165039062 -171.590820312 312.346679688 -171.590820312 c 0
 255.528320312 -170.454101562 241.892578125 -165.909179688 223.709960938 -144.318359375 c 0
 197.57421875 -112.5 196.4375 -78.4091796875 220.30078125 -31.818359375 c 0
 235.07421875 -2.2724609375 235.07421875 18.181640625 225.983398438 90.9091796875 c 0
 219.165039062 138.63671875 210.07421875 181.818359375 206.665039062 187.5 c 0
 203.255859375 193.181640625 200.983398438 247.727539062 200.983398438 310.227539062 c 0
 200.983398438 400 197.57421875 426.13671875 182.80078125 438.63671875 c 0
 155.528320312 461.36328125 131.665039062 525 140.755859375 553.409179688 c 0
 153.255859375 592.045898438 258.9375 706.818359375 286.209960938 711.36328125 c 0
414.619140625 606.818359375 m 0
 377.119140625 619.318359375 337.346679688 629.545898438 325.983398438 629.545898438 c 0
 300.983398438 629.545898438 224.846679688 539.772460938 232.80078125 519.318359375 c 0
 236.209960938 511.36328125 249.846679688 504.545898438 263.483398438 504.545898438 c 0
 310.07421875 504.545898438 318.028320312 489.772460938 298.709960938 444.318359375 c 0
 274.846679688 387.5 277.119140625 321.590820312 306.665039062 137.5 c 0
 325.983398438 12.5 328.255859375 -25 318.028320312 -42.0458984375 c 0
 297.57421875 -73.86328125 300.983398438 -86.36328125 330.528320312 -86.36328125 c 0
 379.392578125 -86.36328125 547.57421875 37.5 660.07421875 157.954101562 c 0
 708.9375 209.090820312 781.665039062 323.86328125 781.665039062 347.727539062 c 0
 781.665039062 429.545898438 630.528320312 536.36328125 414.619140625 606.818359375 c 0
411.209960938 442.045898438 m 0
 418.028320312 468.181640625 422.57421875 471.590820312 449.846679688 464.772460938 c 0
 494.165039062 454.545898438 589.619140625 397.727539062 621.4375 363.63671875 c 0
 672.57421875 309.090820312 649.846679688 236.36328125 545.30078125 127.272460938 c 0
 479.392578125 57.9541015625 457.80078125 47.7275390625 447.57421875 81.818359375 c 0
 423.709960938 162.5 399.846679688 397.727539062 411.209960938 442.045898438 c 0
548.709960938 264.772460938 m 0
 563.483398438 294.318359375 563.483398438 298.86328125 538.483398438 321.590820312 c 0
 504.392578125 353.409179688 497.57421875 343.181640625 505.528320312 275 c 0
 512.346679688 217.045898438 522.57421875 214.772460938 548.709960938 264.772460938 c 0
EndSplineSet
Validated: 33
EndChar

StartChar: E
Encoding: 69 69 4
Width: 1000
HStem: -177.272 113.636<292.078 413.923> 318.182 200<492.529 669.014>
VStem: 411.7 500<368.182 565.909>
LayerCount: 2
Fore
SplineSet
373.063476562 681.818359375 m 0
 413.97265625 693.181640625 520.791015625 704.545898438 611.700195312 706.818359375 c 0
 800.336914062 709.090820312 911.700195312 656.818359375 911.700195312 565.909179688 c 0
 911.700195312 513.63671875 829.881835938 413.63671875 784.427734375 413.63671875 c 0
 748.063476562 413.63671875 795.791015625 275 852.609375 211.36328125 c 0
 882.154296875 179.545898438 888.97265625 147.727539062 879.881835938 106.818359375 c 0
 868.518554688 59.0908203125 818.518554688 25 634.427734375 -63.63671875 c 0
 507.154296875 -127.272460938 375.336914062 -177.272460938 338.97265625 -177.272460938 c 0
 259.427734375 -177.272460938 168.518554688 -93.181640625 150.336914062 -2.2724609375 c 0
 141.245117188 31.818359375 120.791015625 97.7275390625 104.881835938 140.909179688 c 0
 79.8818359375 211.36328125 82.154296875 229.545898438 118.518554688 300 c 0
 148.063476562 352.272460938 157.154296875 402.272460938 148.063476562 443.181640625 c 0
 136.700195312 495.454101562 148.063476562 518.181640625 218.518554688 581.818359375 c 0
 263.97265625 622.727539062 332.154296875 668.181640625 373.063476562 681.818359375 c 0
775.336914062 572.727539062 m 0
 709.427734375 615.909179688 473.063476562 597.727539062 368.518554688 545.454101562 c 0
 275.336914062 495.454101562 268.518554688 488.63671875 263.97265625 384.090820312 c 0
 259.427734375 325 248.063476562 263.63671875 234.427734375 247.727539062 c 0
 218.518554688 229.545898438 220.791015625 184.090820312 241.245117188 100 c 0
 279.881835938 -45.4541015625 291.245117188 -63.63671875 338.97265625 -63.63671875 c 0
 409.427734375 -63.63671875 777.609375 125 752.609375 150 c 0
 738.97265625 163.63671875 693.518554688 150 618.518554688 111.36328125 c 0
 463.97265625 25 420.791015625 29.5458984375 400.336914062 131.818359375 c 0
 382.154296875 231.818359375 407.154296875 254.545898438 538.97265625 254.545898438 c 0
 598.063476562 254.545898438 645.791015625 268.181640625 663.97265625 290.909179688 c 0
 693.518554688 325 682.154296875 327.272460938 552.609375 318.181640625 c 0
 413.97265625 309.090820312 411.700195312 309.090820312 411.700195312 368.181640625 c 0
 411.700195312 470.454101562 457.154296875 504.545898438 604.881835938 518.181640625 c 0
 786.700195312 534.090820312 818.518554688 545.454101562 775.336914062 572.727539062 c 0
EndSplineSet
Validated: 33
EndChar

StartChar: F
Encoding: 70 70 5
Width: 1000
HStem: 186.363 111.364<491.6 649.684>
VStem: 387.5 102.273<129.36 184.35>
LayerCount: 2
Fore
SplineSet
496.591796875 754.545898438 m 0
 662.5 781.818359375 703.41015625 779.545898438 787.5 745.454101562 c 0
 855.681640625 715.909179688 867.044921875 700 867.044921875 634.090820312 c 0
 867.044921875 575 853.41015625 545.454101562 810.2265625 518.181640625 c 0
 755.681640625 481.818359375 755.681640625 479.545898438 789.7734375 422.727539062 c 0
 821.591796875 377.272460938 823.86328125 354.545898438 801.13671875 309.090820312 c 0
 773.86328125 245.454101562 653.41015625 186.36328125 553.41015625 186.36328125 c 2
 489.7734375 186.36328125 l 1
 505.681640625 56.818359375 l 2
 528.41015625 -122.727539062 485.2265625 -186.36328125 335.2265625 -195.454101562 c 0
 232.955078125 -202.272460938 228.41015625 -200 194.318359375 -118.181640625 c 0
 171.591796875 -65.9091796875 155.681640625 75 146.591796875 275 c 2
 132.955078125 586.36328125 l 1
 214.7734375 670.454101562 l 2
 267.044921875 722.727539062 314.7734375 750 342.044921875 743.181640625 c 0
 367.044921875 738.63671875 435.2265625 743.181640625 496.591796875 754.545898438 c 0
748.86328125 643.181640625 m 0
 712.5 665.909179688 644.318359375 665.909179688 492.044921875 638.63671875 c 0
 430.681640625 627.272460938 367.044921875 622.727539062 351.13671875 629.545898438 c 0
 335.2265625 634.090820312 303.41015625 611.36328125 276.13671875 579.545898438 c 0
 223.86328125 511.36328125 219.318359375 422.727539062 260.2265625 140.909179688 c 0
 287.5 -34.0908203125 294.318359375 -52.2724609375 342.044921875 -59.0908203125 c 0
 392.044921875 -68.181640625 394.318359375 -63.63671875 387.5 97.7275390625 c 0
 378.41015625 281.818359375 389.7734375 295.454101562 551.13671875 297.727539062 c 0
 594.318359375 300 651.13671875 313.63671875 676.13671875 331.818359375 c 0
 717.044921875 363.63671875 717.044921875 365.909179688 678.41015625 381.818359375 c 0
 655.681640625 390.909179688 576.13671875 390.909179688 501.13671875 384.090820312 c 2
 367.044921875 368.181640625 l 1
 367.044921875 445.454101562 l 2
 367.044921875 513.63671875 376.13671875 522.727539062 455.681640625 545.454101562 c 0
 576.13671875 581.818359375 619.318359375 579.545898438 603.41015625 538.63671875 c 0
 582.955078125 488.63671875 610.2265625 495.454101562 698.86328125 565.909179688 c 0
 757.955078125 609.090820312 771.591796875 629.545898438 748.86328125 643.181640625 c 0
EndSplineSet
Validated: 33
EndChar

StartChar: G
Encoding: 71 71 6
Width: 1000
HStem: -170.454 129.545<611.373 703.911>
VStem: 713.077 190.909<118.182 361.363>
LayerCount: 2
Fore
SplineSet
472.16796875 781.818359375 m 0
 519.895507812 802.272460938 513.077148438 804.545898438 599.44140625 763.63671875 c 0
 685.8046875 722.727539062 722.16796875 636.36328125 681.258789062 572.727539062 c 0
 660.8046875 538.63671875 667.623046875 529.545898438 728.986328125 518.181640625 c 0
 815.350585938 500 903.986328125 420.454101562 903.986328125 361.36328125 c 0
 903.986328125 336.36328125 881.258789062 281.818359375 856.258789062 238.63671875 c 0
 813.077148438 168.181640625 810.8046875 150 833.532226562 70.4541015625 c 0
 867.623046875 -40.9091796875 851.713867188 -93.181640625 774.44140625 -143.181640625 c 0
 733.532226562 -170.454101562 690.350585938 -179.545898438 622.16796875 -170.454101562 c 0
 572.16796875 -163.63671875 490.350585938 -168.181640625 442.623046875 -181.818359375 c 0
 372.16796875 -202.272460938 342.623046875 -200 278.986328125 -170.454101562 c 0
 140.350585938 -104.545898438 58.5322265625 143.181640625 113.077148438 338.63671875 c 0
 156.258789062 497.727539062 338.077148438 720.454101562 472.16796875 781.818359375 c 0
572.16796875 643.181640625 m 0
 556.258789062 670.454101562 494.895507812 668.181640625 444.895507812 640.909179688 c 0
 424.44140625 627.272460938 365.350585938 554.545898438 315.350585938 479.545898438 c 0
 233.532226562 354.545898438 222.16796875 325 222.16796875 204.545898438 c 0
 222.16796875 127.272460938 238.077148438 40.9091796875 258.532226562 0 c 0
 292.623046875 -63.63671875 301.713867188 -68.181640625 394.895507812 -56.818359375 c 0
 451.713867188 -52.2724609375 515.350585938 -29.5458984375 538.077148438 -9.0908203125 c 0
 588.077148438 36.36328125 608.532226562 36.36328125 608.532226562 -6.818359375 c 0
 608.532226562 -27.2724609375 628.986328125 -40.9091796875 660.8046875 -40.9091796875 c 0
 710.8046875 -40.9091796875 713.077148438 -34.0908203125 713.077148438 118.181640625 c 0
 710.8046875 250 717.623046875 281.818359375 756.258789062 309.090820312 c 0
 860.8046875 386.36328125 658.532226562 429.545898438 522.16796875 359.090820312 c 0
 397.16796875 293.181640625 363.077148438 195.454101562 483.532226562 250 c 0
 590.350585938 297.727539062 613.077148438 286.36328125 594.895507812 193.181640625 c 0
 569.895507812 36.36328125 424.44140625 -25 365.350585938 95.4541015625 c 0
 303.986328125 215.909179688 347.16796875 481.818359375 426.713867188 481.818359375 c 0
 474.44140625 481.818359375 592.623046875 611.36328125 572.16796875 643.181640625 c 0
EndSplineSet
Validated: 33
EndChar

StartChar: H
Encoding: 72 72 7
Width: 1000
VStem: 386.787 204.546<369.069 545.599> 682.241 113.637<446.023 685.699>
LayerCount: 2
Fore
SplineSet
539.059570312 727.272460938 m 0
 600.423828125 793.181640625 623.150390625 802.272460938 675.423828125 788.63671875 c 0
 777.696289062 763.63671875 795.877929688 734.090820312 795.877929688 597.727539062 c 0
 795.877929688 515.909179688 809.514648438 450 832.241210938 418.181640625 c 0
 857.241210938 381.818359375 864.059570312 345.454101562 850.423828125 304.545898438 c 0
 841.333007812 270.454101562 834.514648438 193.181640625 834.514648438 131.818359375 c 0
 836.787109375 -13.63671875 804.96875 -97.7275390625 734.514648438 -154.545898438 c 0
 664.059570312 -209.090820312 575.423828125 -213.63671875 518.60546875 -161.36328125 c 0
 479.96875 -127.272460938 473.150390625 -127.272460938 400.423828125 -165.909179688 c 0
 327.696289062 -204.545898438 318.60546875 -206.818359375 264.059570312 -170.454101562 c 0
 232.241210938 -147.727539062 200.423828125 -109.090820312 195.877929688 -79.5458984375 c 0
 170.877929688 29.5458984375 154.96875 161.36328125 145.877929688 345.454101562 c 0
 134.514648438 554.545898438 148.150390625 588.63671875 273.150390625 668.181640625 c 0
 320.877929688 700 341.333007812 702.272460938 398.150390625 677.272460938 c 0
 461.787109375 650 470.877929688 652.272460938 539.059570312 727.272460938 c 0
682.241210938 554.545898438 m 0
 682.241210938 627.272460938 673.150390625 686.36328125 664.059570312 686.36328125 c 0
 616.333007812 686.36328125 591.333007812 620.454101562 591.333007812 488.63671875 c 2
 591.333007812 345.454101562 l 1
 518.60546875 354.545898438 l 2
 477.696289062 359.090820312 429.96875 363.63671875 416.333007812 365.909179688 c 0
 398.150390625 368.181640625 386.787109375 400 386.787109375 443.181640625 c 0
 386.787109375 481.818359375 375.423828125 531.818359375 364.059570312 550 c 0
 329.96875 604.545898438 264.059570312 547.727539062 252.696289062 456.818359375 c 0
 243.60546875 363.63671875 293.60546875 -59.0908203125 318.60546875 -75 c 0
 325.423828125 -79.5458984375 357.241210938 -68.181640625 384.514648438 -47.7275390625 c 0
 429.96875 -18.181640625 434.514648438 4.5458984375 427.696289062 115.909179688 c 2
 420.877929688 243.181640625 l 1
 502.696289062 250 l 1
 584.514648438 256.818359375 l 1
 598.150390625 136.36328125 l 2
 607.241210938 70.4541015625 607.241210938 -6.818359375 600.423828125 -36.36328125 c 0
 579.96875 -106.818359375 648.150390625 -102.272460938 695.877929688 -29.5458984375 c 0
 725.423828125 15.9091796875 729.96875 59.0908203125 720.877929688 163.63671875 c 0
 711.787109375 243.181640625 714.059570312 304.545898438 727.696289062 311.36328125 c 0
 741.333007812 320.454101562 736.787109375 345.454101562 716.333007812 375 c 0
 695.877929688 404.545898438 682.241210938 475 682.241210938 554.545898438 c 0
EndSplineSet
Validated: 33
EndChar

StartChar: I
Encoding: 73 73 8
Width: 1000
VStem: 564.368 106.817<68.8101 593.954>
LayerCount: 2
Fore
SplineSet
443.913085938 727.272460938 m 0
 523.458984375 788.63671875 550.731445312 788.63671875 612.094726562 738.63671875 c 0
 655.27734375 702.272460938 659.822265625 665.909179688 671.185546875 334.090820312 c 0
 684.822265625 -52.2724609375 682.549804688 -61.36328125 571.185546875 -138.63671875 c 0
 491.640625 -193.181640625 423.458984375 -186.36328125 371.185546875 -120.454101562 c 0
 330.27734375 -70.4541015625 325.731445312 -25 323.458984375 272.727539062 c 0
 321.185546875 627.272460938 323.458984375 634.090820312 443.913085938 727.272460938 c 0
550.731445312 659.090820312 m 0
 546.185546875 677.272460938 505.27734375 656.818359375 473.458984375 622.727539062 c 0
 418.913085938 563.63671875 416.640625 -34.0908203125 468.913085938 -54.5458984375 c 0
 487.094726562 -63.63671875 518.913085938 -54.5458984375 539.368164062 -38.63671875 c 0
 571.185546875 -13.63671875 573.458984375 36.36328125 564.368164062 322.727539062 c 0
 557.549804688 504.545898438 550.731445312 654.545898438 550.731445312 659.090820312 c 0
EndSplineSet
Validated: 33
EndChar

StartChar: J
Encoding: 74 74 9
Width: 1000
HStem: -36.3633 106.817<158.229 373.968>
LayerCount: 2
Fore
SplineSet
461.36328125 650 m 0
 613.635742188 815.909179688 713.635742188 786.36328125 768.181640625 563.63671875 c 0
 800 436.36328125 847.727539062 336.36328125 909.090820312 270.454101562 c 0
 963.635742188 211.36328125 963.635742188 136.36328125 911.36328125 88.63671875 c 0
 888.635742188 68.181640625 761.36328125 -4.5458984375 625 -75 c 0
 420.454101562 -179.545898438 361.36328125 -200 261.36328125 -200 c 0
 113.635742188 -200 34.0908203125 -134.090820312 52.2724609375 -29.5458984375 c 0
 70.4541015625 68.181640625 118.181640625 104.545898438 195.454101562 84.0908203125 c 0
 229.544921875 72.7275390625 279.544921875 68.181640625 304.544921875 70.4541015625 c 0
 370.454101562 77.2724609375 588.635742188 186.36328125 588.635742188 211.36328125 c 0
 588.635742188 225 572.727539062 263.63671875 554.544921875 300 c 0
 531.818359375 343.181640625 509.090820312 361.36328125 479.544921875 354.545898438 c 0
 422.727539062 338.63671875 329.544921875 440.909179688 347.727539062 500 c 0
 356.818359375 525 406.818359375 593.181640625 461.36328125 650 c 0
659.090820312 545.454101562 m 0
 643.181640625 597.727539062 618.181640625 640.909179688 602.272460938 640.909179688 c 0
 565.909179688 640.909179688 440.909179688 484.090820312 461.36328125 465.909179688 c 0
 468.181640625 456.818359375 493.181640625 470.454101562 518.181640625 490.909179688 c 0
 561.36328125 529.545898438 563.635742188 525 652.272460938 345.454101562 c 2
 743.181640625 161.36328125 l 1
 693.181640625 129.545898438 l 2
 547.727539062 34.0908203125 334.090820312 -45.4541015625 247.727539062 -36.36328125 c 0
 186.36328125 -31.818359375 156.818359375 -36.36328125 156.818359375 -56.818359375 c 0
 156.818359375 -95.4541015625 236.36328125 -115.909179688 322.727539062 -97.7275390625 c 0
 379.544921875 -84.0908203125 727.272460938 84.0908203125 845.454101562 156.818359375 c 0
 856.818359375 163.63671875 845.454101562 190.909179688 820.454101562 218.181640625 c 0
 761.36328125 281.818359375 690.909179688 425 659.090820312 545.454101562 c 0
EndSplineSet
Validated: 33
EndChar

StartChar: K
Encoding: 75 75 10
Width: 1000
VStem: 380.51 129.545<419.637 496.488>
LayerCount: 2
Fore
SplineSet
264.600585938 702.272460938 m 0
 316.873046875 761.36328125 396.418945312 756.818359375 464.600585938 695.454101562 c 0
 505.509765625 659.090820312 510.0546875 659.090820312 548.69140625 693.181640625 c 0
 644.145507812 779.545898438 780.509765625 713.63671875 780.509765625 581.818359375 c 0
 780.509765625 529.545898438 794.145507812 497.727539062 825.963867188 481.818359375 c 0
 882.782226562 452.272460938 882.782226562 388.63671875 825.963867188 227.272460938 c 0
 800.963867188 156.818359375 778.237304688 50 775.963867188 -6.818359375 c 0
 773.69140625 -88.63671875 762.328125 -120.454101562 721.418945312 -145.454101562 c 0
 641.873046875 -200 521.418945312 -211.36328125 487.328125 -168.181640625 c 0
 464.600585938 -143.181640625 435.0546875 -136.36328125 373.69140625 -145.454101562 c 0
 250.963867188 -165.909179688 200.963867188 -100 157.782226562 140.909179688 c 0
 105.509765625 443.181640625 125.963867188 550 264.600585938 702.272460938 c 0
380.509765625 497.727539062 m 0
 391.873046875 638.63671875 369.145507812 665.909179688 307.782226562 579.545898438 c 0
 237.328125 479.545898438 230.509765625 425 257.782226562 238.63671875 c 0
 296.418945312 -6.818359375 314.600585938 -50 369.145507812 -18.181640625 c 0
 403.237304688 -2.2724609375 416.873046875 34.0908203125 421.418945312 111.36328125 c 0
 428.237304688 211.36328125 432.782226562 218.181640625 516.873046875 247.727539062 c 0
 566.873046875 263.63671875 610.0546875 275 614.600585938 270.454101562 c 0
 619.145507812 265.909179688 605.509765625 218.181640625 587.328125 163.63671875 c 0
 535.0546875 18.181640625 541.873046875 -45.4541015625 605.509765625 -36.36328125 c 0
 646.418945312 -31.818359375 657.782226562 -11.36328125 669.145507812 84.0908203125 c 0
 678.237304688 147.727539062 700.963867188 236.36328125 721.418945312 286.36328125 c 0
 741.873046875 334.090820312 753.237304688 381.818359375 746.418945312 390.909179688 c 0
 739.600585938 402.272460938 698.69140625 400 653.237304688 386.36328125 c 0
 607.782226562 375 566.873046875 370.454101562 560.0546875 377.272460938 c 0
 553.237304688 384.090820312 573.69140625 431.818359375 607.782226562 481.818359375 c 0
 669.145507812 572.727539062 680.509765625 618.181640625 648.69140625 618.181640625 c 0
 623.69140625 618.181640625 546.418945312 529.545898438 510.0546875 459.090820312 c 0
 496.418945312 427.272460938 466.873046875 381.818359375 448.69140625 356.818359375 c 0
 398.69140625 288.63671875 366.873046875 352.272460938 380.509765625 497.727539062 c 0
EndSplineSet
Validated: 33
EndChar

StartChar: L
Encoding: 76 76 11
Width: 1000
HStem: -86.3633 113.636<603.296 769.981>
VStem: 65.2803 125<-2.25106 519.161> 349.371 129.545<214.321 661.363>
LayerCount: 2
Fore
SplineSet
208.461914062 752.272460938 m 0
 303.916015625 809.090820312 363.006835938 811.36328125 431.189453125 763.63671875 c 0
 478.916015625 731.818359375 483.461914062 709.090820312 478.916015625 586.36328125 c 0
 476.643554688 511.36328125 476.643554688 395.454101562 478.916015625 329.545898438 c 2
 481.189453125 213.63671875 l 1
 647.09765625 225 l 2
 790.280273438 234.090820312 817.552734375 231.818359375 874.37109375 186.36328125 c 0
 933.461914062 138.63671875 953.916015625 63.63671875 917.552734375 13.63671875 c 0
 885.734375 -34.0908203125 788.006835938 -86.36328125 731.189453125 -86.36328125 c 0
 699.37109375 -86.36328125 576.643554688 -111.36328125 458.461914062 -140.909179688 c 0
 272.09765625 -186.36328125 235.734375 -190.909179688 183.461914062 -163.63671875 c 0
 94.8251953125 -120.454101562 69.8251953125 -27.2724609375 65.2802734375 234.090820312 c 0
 60.734375 645.454101562 67.552734375 665.909179688 208.461914062 752.272460938 c 0
349.37109375 443.181640625 m 0
 356.189453125 640.909179688 351.643554688 663.63671875 317.552734375 663.63671875 c 0
 294.825195312 663.63671875 253.916015625 640.909179688 228.916015625 615.909179688 c 0
 183.461914062 570.454101562 181.189453125 550 190.280273438 275 c 0
 194.825195312 93.181640625 208.461914062 -27.2724609375 226.643554688 -45.4541015625 c 0
 247.09765625 -65.9091796875 292.552734375 -59.0908203125 422.09765625 -22.7275390625 c 0
 515.280273438 4.5458984375 626.643554688 27.2724609375 667.552734375 27.2724609375 c 0
 710.734375 27.2724609375 765.280273438 40.9091796875 788.006835938 59.0908203125 c 0
 828.916015625 88.63671875 826.643554688 90.9091796875 758.461914062 106.818359375 c 0
 719.825195312 113.63671875 667.552734375 115.909179688 647.09765625 109.090820312 c 0
 624.37109375 102.272460938 553.916015625 90.9091796875 488.006835938 84.0908203125 c 2
 369.825195312 70.4541015625 l 1
 356.189453125 147.727539062 l 2
 347.09765625 188.63671875 344.825195312 322.727539062 349.37109375 443.181640625 c 0
EndSplineSet
Validated: 33
EndChar

StartChar: M
Encoding: 77 77 12
Width: 1000
VStem: 572.69 97.7275<-24.0252 69.6315> 586.327 84.0908<276.671 410.58>
LayerCount: 2
Fore
SplineSet
579.508789062 745.454101562 m 0x80
 631.78125 811.36328125 752.236328125 820.454101562 804.508789062 761.36328125 c 0
 827.236328125 734.090820312 847.690429688 625 865.872070312 436.36328125 c 0
 881.78125 279.545898438 902.236328125 109.090820312 911.327148438 59.0908203125 c 0
 934.053710938 -59.0908203125 913.599609375 -97.7275390625 799.962890625 -154.545898438 c 0
 724.962890625 -193.181640625 702.236328125 -195.454101562 663.599609375 -172.727539062 c 0
 618.14453125 -145.454101562 572.690429688 -29.5458984375 572.690429688 56.818359375 c 0
 572.690429688 86.36328125 543.14453125 75 427.236328125 -6.818359375 c 0
 265.872070312 -118.181640625 209.053710938 -131.818359375 145.41796875 -68.181640625 c 0
 111.327148438 -34.0908203125 102.236328125 13.63671875 99.962890625 200 c 0
 97.6904296875 322.727539062 90.8720703125 452.272460938 84.0537109375 484.090820312 c 0
 72.6904296875 531.818359375 86.3271484375 556.818359375 152.236328125 615.909179688 c 0
 197.690429688 654.545898438 256.78125 686.36328125 288.599609375 686.36328125 c 0
 343.14453125 686.36328125 436.327148438 593.181640625 436.327148438 536.36328125 c 0
 436.327148438 472.727539062 474.962890625 506.818359375 504.508789062 597.727539062 c 0
 522.690429688 650 554.508789062 715.909179688 579.508789062 745.454101562 c 0x80
743.14453125 579.545898438 m 0
 731.78125 670.454101562 718.14453125 709.090820312 695.41796875 709.090820312 c 0
 663.599609375 709.090820312 645.41796875 675 527.236328125 386.36328125 c 0
 497.690429688 313.63671875 465.872070312 254.545898438 456.78125 254.545898438 c 0
 449.962890625 254.545898438 411.327148438 325 377.236328125 413.63671875 c 0
 309.053710938 575 265.872070312 609.090820312 209.053710938 538.63671875 c 0
 179.508789062 502.272460938 199.962890625 4.5458984375 231.78125 4.5458984375 c 0
 293.14453125 4.5458984375 322.690429688 38.63671875 322.690429688 111.36328125 c 2
 322.690429688 190.909179688 l 1
 363.599609375 140.909179688 l 1
 404.508789062 90.9091796875 l 1
 477.236328125 152.272460938 l 2
 527.236328125 195.454101562 561.327148438 252.272460938 586.327148438 340.909179688 c 0
 606.78125 413.63671875 631.78125 479.545898438 640.872070312 488.63671875 c 0
 649.962890625 497.727539062 663.599609375 381.818359375 670.41796875 229.545898438 c 0x40
 677.236328125 77.2724609375 693.14453125 -56.818359375 702.236328125 -65.9091796875 c 0
 713.599609375 -77.2724609375 743.14453125 -70.4541015625 768.14453125 -52.2724609375 c 0
 813.599609375 -20.4541015625 813.599609375 -13.63671875 786.327148438 213.63671875 c 0
 770.41796875 343.181640625 749.962890625 506.818359375 743.14453125 579.545898438 c 0
EndSplineSet
Validated: 33
EndChar

StartChar: N
Encoding: 78 78 13
Width: 1000
LayerCount: 2
Fore
SplineSet
431.181640625 718.181640625 m 0
 522.090820312 768.181640625 583.455078125 761.36328125 665.2734375 693.181640625 c 0
 783.455078125 593.181640625 822.090820312 477.272460938 813 252.272460938 c 0
 808.455078125 147.727539062 792.545898438 36.36328125 778.909179688 4.5458984375 c 0
 738 -81.818359375 608.455078125 -163.63671875 533.455078125 -147.727539062 c 0
 494.818359375 -140.909179688 451.63671875 -147.727539062 426.63671875 -168.181640625 c 0
 367.545898438 -211.36328125 278.909179688 -209.090820312 226.63671875 -161.36328125 c 0
 192.545898438 -129.545898438 185.727539062 -88.63671875 185.727539062 143.181640625 c 2
 185.727539062 411.36328125 l 1
 263 486.36328125 l 2
 303.909179688 527.272460938 344.818359375 588.63671875 353.909179688 622.727539062 c 0
 360.727539062 656.818359375 397.090820312 700 431.181640625 718.181640625 c 0
626.63671875 570.454101562 m 0
 565.2734375 645.454101562 528.909179688 656.818359375 488 615.909179688 c 0
 467.545898438 595.454101562 476.63671875 565.909179688 522.090820312 500 c 0
 565.2734375 434.090820312 583.455078125 372.727539062 590.2734375 270.454101562 c 2
 597.090820312 129.545898438 l 1
 499.364257812 284.090820312 l 2
 447.090820312 368.181640625 390.2734375 436.36328125 374.364257812 436.36328125 c 0
 358.455078125 436.36328125 328.909179688 411.36328125 308.455078125 379.545898438 c 0
 278.909179688 331.818359375 274.364257812 288.63671875 288 118.181640625 c 0
 297.090820312 6.818359375 313 -86.36328125 322.090820312 -86.36328125 c 0
 383.455078125 -86.36328125 413 -52.2724609375 413 18.181640625 c 0
 413 113.63671875 435.727539062 115.909179688 488 27.2724609375 c 0
 535.727539062 -50 569.818359375 -56.818359375 638 0 c 0
 678.909179688 31.818359375 690.2734375 70.4541015625 701.63671875 211.36328125 c 0
 717.545898438 418.181640625 703.909179688 477.272460938 626.63671875 570.454101562 c 0
EndSplineSet
Validated: 33
EndChar

StartChar: O
Encoding: 79 79 14
Width: 1000
LayerCount: 2
Fore
SplineSet
395.201171875 752.272460938 m 0
 574.74609375 802.272460938 772.473632812 720.454101562 888.3828125 552.272460938 c 0
 1029.29199219 345.454101562 886.110351562 -11.36328125 613.3828125 -134.090820312 c 0
 438.3828125 -213.63671875 263.3828125 -168.181640625 127.018554688 -2.2724609375 c 0
 65.6552734375 70.4541015625 56.564453125 102.272460938 56.564453125 213.63671875 c 0
 56.564453125 286.36328125 72.4736328125 388.63671875 92.927734375 440.909179688 c 0
 142.927734375 570.454101562 292.927734375 722.727539062 395.201171875 752.272460938 c 0
638.3828125 604.545898438 m 0
 461.110351562 688.63671875 302.018554688 609.090820312 213.3828125 388.63671875 c 0
 147.473632812 225 156.564453125 150 258.836914062 47.7275390625 c 0
 329.291992188 -25 363.3828125 -40.9091796875 431.564453125 -40.9091796875 c 0
 558.836914062 -40.9091796875 702.018554688 52.2724609375 758.836914062 170.454101562 c 0
 849.74609375 359.090820312 804.291992188 525 638.3828125 604.545898438 c 0
399.74609375 543.181640625 m 0
 431.564453125 579.545898438 542.927734375 581.818359375 604.291992188 550 c 0
 627.018554688 536.36328125 663.3828125 495.454101562 681.564453125 459.090820312 c 0
 752.018554688 322.727539062 692.927734375 109.090820312 577.018554688 86.36328125 c 0
 456.564453125 63.63671875 338.3828125 143.181640625 315.655273438 265.909179688 c 0
 304.291992188 336.36328125 345.201171875 477.272460938 399.74609375 543.181640625 c 0
EndSplineSet
Validated: 33
EndChar

StartChar: P
Encoding: 80 80 15
Width: 1000
VStem: 459.455 114.772<431.52 552.549> 703.773 79.5449<496.741 652.151>
LayerCount: 2
Fore
SplineSet
499.227539062 730.681640625 m 0
 543.545898438 747.727539062 666.2734375 745.454101562 703.7734375 726.13671875 c 0
 746.955078125 703.409179688 783.318359375 651.13671875 783.318359375 607.954101562 c 0
 783.318359375 507.954101562 728.7734375 384.090820312 628.7734375 259.090820312 c 2
 566.2734375 181.818359375 l 1
 574.227539062 53.4091796875 l 2
 583.318359375 -93.181640625 575.364257812 -115.909179688 499.227539062 -154.545898438 c 0
 435.591796875 -186.36328125 367.409179688 -185.227539062 336.727539062 -150 c 0
 311.727539062 -121.590820312 289 -2.2724609375 260.591796875 243.181640625 c 0
 254.909179688 296.590820312 241.2734375 365.909179688 229.909179688 398.86328125 c 0
 214 446.590820312 212.864257812 463.63671875 224.227539062 487.5 c 0
 232.182617188 503.409179688 237.864257812 526.13671875 237.864257812 537.5 c 0
 237.864257812 564.772460938 326.5 695.454101562 359.455078125 717.045898438 c 0
 376.5 728.409179688 398.091796875 731.818359375 427.63671875 726.13671875 c 0
 451.5 722.727539062 484.455078125 723.86328125 499.227539062 730.681640625 c 0
682.182617188 652.272460938 m 0
 651.5 668.181640625 549.227539062 665.909179688 491.2734375 647.727539062 c 0
 465.13671875 638.63671875 432.182617188 634.090820312 417.409179688 637.5 c 0
 396.955078125 640.909179688 384.455078125 630.681640625 356.045898438 587.5 c 0
 318.545898438 528.409179688 301.5 456.818359375 317.409179688 427.272460938 c 0
 321.955078125 415.909179688 335.591796875 342.045898438 344.682617188 260.227539062 c 0
 361.727539062 129.545898438 377.63671875 17.0458984375 392.409179688 -61.36328125 c 0
 398.091796875 -92.0458984375 440.13671875 -95.4541015625 475.364257812 -65.9091796875 c 0
 498.091796875 -47.7275390625 498.091796875 -39.7724609375 490.13671875 84.0908203125 c 2
 481.045898438 214.772460938 l 1
 534.455078125 272.727539062 l 2
 643.545898438 394.318359375 703.7734375 506.818359375 703.7734375 595.454101562 c 0
 703.7734375 628.409179688 698.091796875 643.181640625 682.182617188 652.272460938 c 0
473.091796875 548.86328125 m 0
 484.455078125 555.681640625 510.591796875 561.36328125 529.909179688 561.36328125 c 0
 559.455078125 561.36328125 568.545898438 555.681640625 574.227539062 534.090820312 c 0
 577.63671875 518.181640625 575.364257812 488.63671875 568.545898438 468.181640625 c 0
 548.091796875 409.090820312 486.727539062 307.954101562 476.5 318.181640625 c 0
 471.955078125 323.86328125 464 375 459.455078125 432.954101562 c 0
 452.63671875 526.13671875 453.7734375 537.5 473.091796875 548.86328125 c 0
EndSplineSet
Validated: 33
EndChar

StartChar: Q
Encoding: 81 81 16
Width: 1000
LayerCount: 2
Fore
SplineSet
428.180664062 740.909179688 m 0
 519.08984375 772.727539062 614.543945312 759.090820312 684.999023438 704.545898438 c 0
 864.543945312 570.454101562 925.908203125 318.181640625 814.543945312 175 c 2
 759.999023438 102.272460938 l 1
 814.543945312 50 l 2
 844.08984375 22.7275390625 866.81640625 -22.7275390625 866.81640625 -50 c 0
 862.271484375 -118.181640625 782.725585938 -200 719.08984375 -200 c 0
 637.271484375 -200 514.543945312 -140.909179688 480.453125 -86.36328125 c 0
 464.543945312 -59.0908203125 407.725585938 -18.181640625 355.453125 6.818359375 c 0
 225.908203125 61.36328125 119.08984375 211.36328125 130.453125 313.63671875 c 0
 137.271484375 354.545898438 146.362304688 400 155.453125 413.63671875 c 0
 162.271484375 427.272460938 175.908203125 465.909179688 180.453125 500 c 0
 196.362304688 581.818359375 319.08984375 704.545898438 428.180664062 740.909179688 c 0
653.180664062 597.727539062 m 0
 594.08984375 647.727539062 532.725585938 659.090820312 446.362304688 636.36328125 c 0
 334.999023438 606.818359375 221.362304688 436.36328125 314.543945312 436.36328125 c 0
 332.725585938 436.36328125 362.271484375 468.181640625 382.725585938 504.545898438 c 0
 419.08984375 577.272460938 459.999023438 588.63671875 532.725585938 550 c 0
 621.362304688 502.272460938 673.634765625 315.909179688 621.362304688 231.818359375 c 0
 596.362304688 193.181640625 596.362304688 195.454101562 544.08984375 306.818359375 c 0
 500.908203125 402.272460938 484.999023438 409.090820312 430.453125 347.727539062 c 0
 398.634765625 313.63671875 396.362304688 293.181640625 416.81640625 256.818359375 c 0
 453.180664062 186.36328125 394.08984375 193.181640625 325.908203125 265.909179688 c 0
 278.180664062 315.909179688 273.634765625 331.818359375 298.634765625 370.454101562 c 0
 325.908203125 413.63671875 323.634765625 413.63671875 280.453125 390.909179688 c 0
 209.999023438 352.272460938 223.634765625 261.36328125 312.271484375 172.727539062 c 0
 355.453125 129.545898438 409.999023438 95.4541015625 437.271484375 95.4541015625 c 0
 466.81640625 95.4541015625 505.453125 65.9091796875 534.999023438 15.9091796875 c 0
 589.543945312 -65.9091796875 698.634765625 -109.090820312 739.543945312 -68.181640625 c 0
 757.725585938 -50 746.362304688 -22.7275390625 703.180664062 27.2724609375 c 0
 630.453125 115.909179688 628.180664062 140.909179688 700.908203125 209.090820312 c 0
 794.08984375 297.727539062 769.08984375 495.454101562 653.180664062 597.727539062 c 0
EndSplineSet
Validated: 33
EndChar

StartChar: R
Encoding: 82 82 17
Width: 1000
HStem: 220.454 79.5459<614.265 680.205>
VStem: 406.519 80.6816<20.0307 60.7158>
LayerCount: 2
Fore
SplineSet
424.700195312 728.409179688 m 0
 498.564453125 746.590820312 589.473632812 739.772460938 650.836914062 709.090820312 c 0
 711.064453125 680.681640625 744.018554688 619.318359375 733.791015625 554.545898438 c 0
 724.700195312 502.272460938 676.973632812 404.545898438 639.473632812 364.772460938 c 0
 611.064453125 332.954101562 603.109375 300 625.836914062 300 c 0
 663.336914062 300 820.155273438 225 845.155273438 195.454101562 c 0
 884.927734375 148.86328125 883.791015625 81.818359375 844.018554688 44.318359375 c 0
 787.200195312 -7.9541015625 755.3828125 -10.2275390625 620.155273438 27.2724609375 c 0
 553.109375 45.4541015625 496.291015625 61.36328125 492.8828125 61.36328125 c 0
 489.473632812 61.36328125 487.200195312 50 487.200195312 35.2275390625 c 0
 487.200195312 -4.5458984375 457.655273438 -38.63671875 396.291015625 -69.318359375 c 0
 320.155273438 -107.954101562 255.3828125 -107.954101562 230.3828125 -68.181640625 c 0
 206.518554688 -31.818359375 173.564453125 122.727539062 157.655273438 270.454101562 c 0
 151.973632812 331.818359375 140.609375 402.272460938 132.655273438 427.272460938 c 0
 122.427734375 463.63671875 122.427734375 477.272460938 138.336914062 511.36328125 c 0
 148.564453125 532.954101562 157.655273438 556.818359375 157.655273438 564.772460938 c 0
 157.655273438 609.090820312 300.836914062 696.590820312 424.700195312 728.409179688 c 0
574.700195312 657.954101562 m 0
 542.8828125 667.045898438 514.473632812 675 511.064453125 673.86328125 c 0
 447.427734375 663.63671875 298.564453125 602.272460938 257.655273438 569.318359375 c 0
 228.109375 545.454101562 198.564453125 461.36328125 212.200195312 444.318359375 c 0
 219.018554688 436.36328125 228.109375 389.772460938 231.518554688 339.772460938 c 0
 238.336914062 261.36328125 247.427734375 200 279.24609375 18.181640625 c 0
 288.336914062 -34.0908203125 319.018554688 -30.681640625 406.518554688 34.0908203125 c 0
 408.791015625 36.36328125 404.24609375 62.5 396.291015625 94.318359375 c 0
 374.700195312 186.36328125 369.018554688 186.36328125 605.3828125 113.63671875 c 0
 738.336914062 72.7275390625 767.8828125 70.4541015625 794.018554688 101.13671875 c 0
 816.74609375 128.409179688 788.336914062 157.954101562 706.518554688 189.772460938 c 0
 663.336914062 206.818359375 624.700195312 220.454101562 621.291015625 220.454101562 c 0
 607.655273438 220.454101562 464.473632812 287.5 464.473632812 294.318359375 c 0
 464.473632812 297.727539062 497.427734375 331.818359375 537.200195312 371.590820312 c 0
 641.74609375 473.86328125 686.064453125 576.13671875 646.291015625 623.86328125 c 0
 638.336914062 632.954101562 606.518554688 648.86328125 574.700195312 657.954101562 c 0
399.700195312 577.272460938 m 0
 489.473632812 617.045898438 575.836914062 585.227539062 559.927734375 518.181640625 c 0
 542.8828125 452.272460938 479.24609375 375 420.155273438 350 c 0
 396.291015625 339.772460938 376.973632812 337.5 370.155273438 344.318359375 c 0
 356.518554688 357.954101562 345.155273438 494.318359375 355.3828125 531.818359375 c 0
 359.927734375 550 375.836914062 567.045898438 399.700195312 577.272460938 c 0
464.473632812 493.181640625 m 0
 473.564453125 510.227539062 473.564453125 515.909179688 461.064453125 515.909179688 c 0
 441.74609375 515.909179688 430.3828125 504.545898438 430.3828125 485.227539062 c 0
 430.3828125 462.5 450.836914062 467.045898438 464.473632812 493.181640625 c 0
EndSplineSet
Validated: 33
EndChar

StartChar: S
Encoding: 83 83 18
Width: 1000
HStem: 390.909 113.637<458.924 615.635>
LayerCount: 2
Fore
SplineSet
456.809570312 711.36328125 m 0
 529.536132812 734.090820312 622.71875 752.272460938 665.900390625 752.272460938 c 0
 809.08203125 754.545898438 870.4453125 636.36328125 790.900390625 515.909179688 c 0
 756.809570312 463.63671875 756.809570312 459.090820312 790.900390625 459.090820312 c 0
 852.263671875 459.090820312 934.08203125 393.181640625 963.627929688 322.727539062 c 0
 988.627929688 263.63671875 984.08203125 243.181640625 934.08203125 156.818359375 c 0
 865.900390625 38.63671875 727.263671875 -88.63671875 606.809570312 -150 c 0
 447.71875 -231.818359375 199.991210938 -195.454101562 102.263671875 -77.2724609375 c 0
 56.8095703125 -25 31.8095703125 115.909179688 56.8095703125 179.545898438 c 0
 70.4453125 218.181640625 68.1728515625 254.545898438 43.1728515625 300 c 0
 6.8095703125 370.454101562 13.6279296875 411.36328125 84.08203125 511.36328125 c 0
 131.809570312 579.545898438 252.263671875 645.454101562 456.809570312 711.36328125 c 0
713.627929688 625 m 0
 713.627929688 652.272460938 638.627929688 640.909179688 474.991210938 586.36328125 c 0
 252.263671875 513.63671875 199.991210938 484.090820312 165.900390625 422.727539062 c 0
 122.71875 340.909179688 154.536132812 322.727539062 420.4453125 284.090820312 c 0
 679.536132812 245.454101562 731.809570312 218.181640625 693.172851562 145.454101562 c 0
 622.71875 13.63671875 213.627929688 22.7275390625 213.627929688 154.545898438 c 0
 213.627929688 172.727539062 202.263671875 181.818359375 190.900390625 175 c 0
 152.263671875 150 165.900390625 29.5458984375 211.354492188 -15.9091796875 c 0
 263.627929688 -68.181640625 393.172851562 -97.7275390625 477.263671875 -77.2724609375 c 0
 645.4453125 -34.0908203125 886.354492188 215.909179688 836.354492188 295.454101562 c 0
 809.08203125 336.36328125 756.809570312 352.272460938 515.900390625 390.909179688 c 0
 424.991210938 406.818359375 349.991210938 425 349.991210938 434.090820312 c 0
 349.991210938 454.545898438 506.809570312 504.545898438 570.4453125 504.545898438 c 0
 611.354492188 504.545898438 713.627929688 590.909179688 713.627929688 625 c 0
EndSplineSet
Validated: 33
EndChar

StartChar: T
Encoding: 84 84 19
Width: 1000
VStem: 875 113.637<604.981 659.121>
LayerCount: 2
Fore
SplineSet
615.908203125 738.63671875 m 0
 727.2734375 754.545898438 838.63671875 770.454101562 863.63671875 772.727539062 c 0
 925 777.272460938 988.63671875 713.63671875 988.63671875 645.454101562 c 0
 988.63671875 577.272460938 847.7265625 436.36328125 777.2734375 434.090820312 c 0
 715.908203125 431.818359375 625 418.181640625 584.08984375 402.272460938 c 0
 559.08984375 393.181640625 556.818359375 347.727539062 570.455078125 186.36328125 c 0
 584.08984375 6.818359375 579.544921875 -25 545.455078125 -63.63671875 c 0
 495.455078125 -120.454101562 425 -120.454101562 356.818359375 -68.181640625 c 0
 309.08984375 -31.818359375 284.08984375 38.63671875 229.544921875 279.545898438 c 0
 218.181640625 329.545898438 206.818359375 336.36328125 152.2734375 327.272460938 c 0
 75 315.909179688 11.36328125 370.454101562 11.36328125 445.454101562 c 0
 11.36328125 522.727539062 90.908203125 611.36328125 188.63671875 643.181640625 c 0
 234.08984375 659.090820312 295.455078125 684.090820312 322.7265625 702.272460938 c 0
 350 720.454101562 381.818359375 729.545898438 393.181640625 722.727539062 c 0
 404.544921875 715.909179688 504.544921875 722.727539062 615.908203125 738.63671875 c 0
875 645.454101562 m 0
 875 668.181640625 875 668.181640625 565.908203125 618.181640625 c 0
 313.63671875 579.545898438 147.7265625 520.454101562 129.544921875 463.63671875 c 0
 122.7265625 443.181640625 143.181640625 438.63671875 211.36328125 450 c 2
 304.544921875 463.63671875 l 1
 343.181640625 277.272460938 l 2
 365.908203125 172.727539062 402.2734375 68.181640625 427.2734375 40.9091796875 c 0
 468.181640625 -6.818359375 468.181640625 -2.2724609375 452.2734375 186.36328125 c 0
 445.455078125 293.181640625 436.36328125 404.545898438 434.08984375 434.090820312 c 0
 431.818359375 486.36328125 443.181640625 493.181640625 613.63671875 522.727539062 c 0
 781.818359375 552.272460938 875 595.454101562 875 645.454101562 c 0
EndSplineSet
Validated: 33
EndChar

StartChar: U
Encoding: 85 85 20
Width: 1000
VStem: 381.468 206.818<255.86 554.767> 715.559 113.637<25.0145 498.145>
LayerCount: 2
Fore
SplineSet
613.286132812 731.818359375 m 0
 708.741210938 788.63671875 804.1953125 790.909179688 833.741210938 736.36328125 c 0
 847.376953125 709.090820312 849.649414062 613.63671875 838.286132812 479.545898438 c 0
 829.1953125 361.36328125 824.649414062 245.454101562 829.1953125 220.454101562 c 0
 847.376953125 111.36328125 840.55859375 4.5458984375 813.286132812 -29.5458984375 c 0
 767.83203125 -84.0908203125 672.376953125 -127.272460938 615.55859375 -118.181640625 c 0
 588.286132812 -113.63671875 529.1953125 -131.818359375 483.741210938 -156.818359375 c 0
 372.376953125 -222.727539062 311.013671875 -193.181640625 229.1953125 -36.36328125 c 0
 176.922851562 65.9091796875 165.55859375 120.454101562 158.741210938 311.36328125 c 0
 149.649414062 536.36328125 149.649414062 538.63671875 213.286132812 604.545898438 c 0
 313.286132812 704.545898438 376.922851562 720.454101562 451.922851562 665.909179688 c 0
 504.1953125 627.272460938 515.55859375 625 526.922851562 652.272460938 c 0
 533.741210938 670.454101562 572.376953125 706.818359375 613.286132812 731.818359375 c 0
720.104492188 527.272460938 m 0
 731.467773438 595.454101562 738.286132812 654.545898438 736.013671875 656.818359375 c 0
 733.741210938 659.090820312 706.467773438 650 676.922851562 634.090820312 c 0
 611.013671875 600 590.55859375 538.63671875 588.286132812 356.818359375 c 0
 586.013671875 222.727539062 524.649414062 72.7275390625 474.649414062 72.7275390625 c 0
 438.286132812 72.7275390625 381.467773438 297.727539062 381.467773438 440.909179688 c 0
 381.467773438 579.545898438 365.55859375 597.727539062 306.467773438 531.818359375 c 0
 251.922851562 472.727539062 256.467773438 240.909179688 313.286132812 79.5458984375 c 0
 338.286132812 9.0908203125 367.83203125 -59.0908203125 379.1953125 -70.4541015625 c 0
 392.83203125 -84.0908203125 440.55859375 -50 504.1953125 15.9091796875 c 0
 604.1953125 118.181640625 608.741210938 120.454101562 608.741210938 63.63671875 c 0
 608.741210938 2.2724609375 640.55859375 -11.36328125 697.376953125 25 c 0
 722.376953125 40.9091796875 726.922851562 84.0908203125 715.55859375 225 c 0
 706.467773438 322.727539062 708.741210938 459.090820312 720.104492188 527.272460938 c 0
EndSplineSet
Validated: 33
EndChar

StartChar: V
Encoding: 86 86 21
Width: 1000
LayerCount: 2
Fore
SplineSet
673.178710938 765.909179688 m 0
 754.99609375 811.36328125 852.723632812 809.090820312 875.451171875 761.36328125 c 0
 907.26953125 697.727539062 886.814453125 600 827.723632812 529.545898438 c 0
 777.723632812 470.454101562 695.905273438 229.545898438 664.087890625 50 c 0
 650.451171875 -38.63671875 602.723632812 -104.545898438 511.814453125 -163.63671875 c 0
 427.723632812 -218.181640625 370.905273438 -177.272460938 307.26953125 -18.181640625 c 0
 279.99609375 50 223.178710938 175 182.26953125 259.090820312 c 0
 100.451171875 422.727539062 89.087890625 518.181640625 141.360351562 615.909179688 c 0
 177.723632812 686.36328125 229.99609375 718.181640625 300.451171875 711.36328125 c 0
 364.087890625 702.272460938 400.451171875 668.181640625 441.360351562 575 c 0
 464.087890625 520.454101562 479.99609375 504.545898438 486.814453125 527.272460938 c 0
 511.814453125 600 618.6328125 736.36328125 673.178710938 765.909179688 c 0
757.26953125 636.36328125 m 0
 804.99609375 700 768.6328125 702.272460938 700.451171875 638.63671875 c 0
 634.541992188 577.272460938 543.6328125 386.36328125 525.451171875 272.727539062 c 0
 516.360351562 225 502.723632812 186.36328125 493.6328125 186.36328125 c 0
 477.723632812 186.36328125 357.26953125 443.181640625 325.451171875 545.454101562 c 0
 302.723632812 615.909179688 250.451171875 606.818359375 232.26953125 529.545898438 c 0
 220.905273438 477.272460938 245.905273438 404.545898438 339.087890625 202.272460938 c 0
 450.451171875 -38.63671875 461.814453125 -56.818359375 498.178710938 -27.2724609375 c 0
 518.6328125 -6.818359375 552.723632812 86.36328125 573.178710938 181.818359375 c 0
 614.087890625 356.818359375 686.814453125 538.63671875 757.26953125 636.36328125 c 0
EndSplineSet
Validated: 33
EndChar

StartChar: W
Encoding: 87 87 22
Width: 1000
VStem: 265.836 88.6367<261.363 513.637>
LayerCount: 2
Fore
SplineSet
447.654296875 709.090820312 m 0
 529.47265625 790.909179688 659.017578125 761.36328125 806.745117188 631.818359375 c 0
 1011.29101562 452.272460938 1004.47265625 15.9091796875 797.654296875 -120.454101562 c 0
 711.291015625 -177.272460938 611.291015625 -168.181640625 545.381835938 -102.272460938 c 2
 488.563476562 -47.7275390625 l 1
 424.926757812 -113.63671875 l 2
 354.47265625 -184.090820312 256.745117188 -197.727539062 188.563476562 -147.727539062 c 0
 145.381835938 -115.909179688 77.2001953125 134.090820312 49.9267578125 356.818359375 c 0
 36.291015625 456.818359375 43.109375 497.727539062 81.7451171875 579.545898438 c 0
 156.745117188 736.36328125 279.47265625 761.36328125 365.8359375 636.36328125 c 0
 395.381835938 595.454101562 402.200195312 593.181640625 402.200195312 625 c 0
 402.200195312 645.454101562 422.654296875 684.090820312 447.654296875 709.090820312 c 0
674.926757812 590.909179688 m 0
 597.654296875 643.181640625 549.926757812 654.545898438 529.47265625 622.727539062 c 0
 524.926757812 613.63671875 559.017578125 540.909179688 609.017578125 459.090820312 c 0
 672.654296875 354.545898438 697.654296875 286.36328125 697.654296875 220.454101562 c 2
 697.654296875 131.818359375 l 1
 597.654296875 270.454101562 l 2
 540.8359375 345.454101562 481.745117188 413.63671875 465.8359375 418.181640625 c 0
 424.926757812 431.818359375 356.745117188 338.63671875 354.47265625 261.36328125 c 0
 354.47265625 227.272460938 345.381835938 177.272460938 336.291015625 154.545898438 c 0
 318.109375 104.545898438 265.8359375 368.181640625 265.8359375 513.63671875 c 0
 265.8359375 559.090820312 256.745117188 595.454101562 243.109375 595.454101562 c 0
 206.745117188 595.454101562 174.926757812 511.36328125 174.926757812 413.63671875 c 0
 174.926757812 306.818359375 238.563476562 -20.4541015625 263.563476562 -47.7275390625 c 0
 302.200195312 -86.36328125 359.017578125 -29.5458984375 395.381835938 86.36328125 c 0
 415.8359375 154.545898438 438.563476562 209.090820312 445.381835938 209.090820312 c 0
 452.200195312 209.090820312 497.654296875 152.272460938 545.381835938 84.0908203125 c 0
 593.109375 13.63671875 649.926757812 -40.9091796875 670.381835938 -40.9091796875 c 0
 772.654296875 -38.63671875 834.017578125 77.2724609375 834.017578125 261.36328125 c 0
 834.017578125 404.545898438 779.47265625 518.181640625 674.926757812 590.909179688 c 0
EndSplineSet
Validated: 33
EndChar

StartChar: X
Encoding: 88 88 23
Width: 1000
LayerCount: 2
Fore
SplineSet
605.794921875 750 m 0
 669.431640625 781.818359375 683.068359375 781.818359375 735.340820312 754.545898438 c 0
 794.431640625 720.454101562 796.704101562 561.36328125 737.61328125 529.545898438 c 0
 714.88671875 518.181640625 678.522460938 465.909179688 658.068359375 413.63671875 c 0
 623.977539062 322.727539062 623.977539062 320.454101562 673.977539062 302.272460938 c 0
 785.340820312 259.090820312 823.977539062 131.818359375 753.522460938 40.9091796875 c 0
 680.794921875 -52.2724609375 628.522460938 -70.4541015625 551.25 -31.818359375 c 0
 483.068359375 0 483.068359375 0 483.068359375 -63.63671875 c 0
 483.068359375 -177.272460938 344.431640625 -240.909179688 273.977539062 -159.090820312 c 0
 214.88671875 -93.181640625 210.340820312 -15.9091796875 255.794921875 115.909179688 c 0
 301.25 240.909179688 301.25 240.909179688 255.794921875 288.63671875 c 0
 192.159179688 354.545898438 196.704101562 461.36328125 267.159179688 536.36328125 c 0
 323.977539062 597.727539062 389.88671875 611.36328125 430.794921875 570.454101562 c 0
 448.977539062 552.272460938 469.431640625 570.454101562 505.794921875 636.36328125 c 0
 535.340820312 686.36328125 578.522460938 738.63671875 605.794921875 750 c 0
687.61328125 643.181640625 m 0
 687.61328125 654.545898438 673.977539062 663.63671875 655.794921875 663.63671875 c 0
 639.88671875 663.63671875 592.159179688 602.272460938 553.522460938 527.272460938 c 0
 512.61328125 452.272460938 473.977539062 390.909179688 469.431640625 390.909179688 c 0
 462.61328125 390.909179688 437.61328125 413.63671875 417.159179688 440.909179688 c 0
 392.159179688 470.454101562 362.61328125 484.090820312 339.88671875 475 c 0
 285.340820312 454.545898438 292.159179688 390.909179688 353.522460938 313.63671875 c 2
 408.068359375 247.727539062 l 1
 364.88671875 136.36328125 l 2
 319.431640625 13.63671875 312.61328125 -77.2724609375 346.704101562 -97.7275390625 c 0
 371.704101562 -113.63671875 383.068359375 -90.9091796875 401.25 27.2724609375 c 0
 426.25 168.181640625 448.977539062 184.090820312 528.522460938 106.818359375 c 0
 585.340820312 52.2724609375 605.794921875 45.4541015625 637.61328125 63.63671875 c 0
 687.61328125 95.4541015625 703.522460938 193.181640625 658.068359375 181.818359375 c 0
 639.88671875 177.272460938 598.977539062 206.818359375 567.159179688 245.454101562 c 2
 508.068359375 315.909179688 l 1
 576.25 461.36328125 l 2
 614.88671875 540.909179688 655.794921875 611.36328125 667.159179688 613.63671875 c 0
 678.522460938 618.181640625 687.61328125 631.818359375 687.61328125 643.181640625 c 0
EndSplineSet
Validated: 33
EndChar

StartChar: Y
Encoding: 89 89 24
Width: 1000
HStem: 686.363 113.637<666.938 748.759>
LayerCount: 2
Fore
SplineSet
639.66796875 772.727539062 m 0
 664.66796875 786.36328125 701.03125 800 721.486328125 800 c 0
 776.03125 800 839.66796875 720.454101562 823.758789062 668.181640625 c 0
 814.66796875 643.181640625 773.758789062 452.272460938 730.577148438 240.909179688 c 0
 676.03125 -31.818359375 641.940429688 -150 614.66796875 -170.454101562 c 0
 564.66796875 -206.818359375 419.212890625 -209.090820312 382.849609375 -172.727539062 c 0
 348.758789062 -138.63671875 346.486328125 40.9091796875 380.577148438 63.63671875 c 0
 396.486328125 72.7275390625 382.849609375 100 346.486328125 138.63671875 c 0
 280.577148438 206.818359375 173.758789062 427.272460938 173.758789062 493.181640625 c 0
 176.03125 586.36328125 319.212890625 700 403.3046875 675 c 0
 430.577148438 665.909179688 464.66796875 627.272460938 480.577148438 588.63671875 c 2
 510.122070312 518.181640625 l 1
 535.122070312 606.818359375 l 2
 564.66796875 715.909179688 580.577148438 738.63671875 639.66796875 772.727539062 c 0
710.122070312 650 m 0
 719.212890625 672.727539062 712.395507812 686.36328125 691.940429688 686.36328125 c 0
 669.212890625 686.36328125 641.940429688 627.272460938 610.122070312 522.727539062 c 0
 528.3046875 250 505.577148438 240.909179688 426.03125 450 c 0
 380.577148438 565.909179688 344.212890625 588.63671875 301.03125 522.727539062 c 0
 273.758789062 477.272460938 312.395507812 350 385.122070312 247.727539062 c 0
 419.212890625 197.727539062 441.940429688 186.36328125 480.577148438 195.454101562 c 0
 530.577148438 209.090820312 530.577148438 204.545898438 507.849609375 106.818359375 c 0
 494.212890625 50 478.3046875 4.5458984375 469.212890625 4.5458984375 c 0
 460.122070312 4.5458984375 457.849609375 -20.4541015625 464.66796875 -52.2724609375 c 0
 469.212890625 -86.36328125 489.66796875 -109.090820312 514.66796875 -109.090820312 c 0
 562.395507812 -109.090820312 580.577148438 -43.181640625 648.758789062 350 c 0
 676.03125 495.454101562 703.3046875 629.545898438 710.122070312 650 c 0
EndSplineSet
Validated: 33
EndChar

StartChar: Z
Encoding: 90 90 25
Width: 1000
HStem: -6.81836 129.546<637.701 851.27>
LayerCount: 2
Fore
SplineSet
547.146484375 754.545898438 m 0
 669.874023438 775 728.96484375 763.63671875 785.783203125 713.63671875 c 0
 842.6015625 661.36328125 833.510742188 595.454101562 744.874023438 459.090820312 c 0
 701.692382812 390.909179688 665.328125 327.272460938 665.328125 318.181640625 c 0
 665.328125 306.818359375 706.237304688 300 756.237304688 300 c 0
 892.6015625 300 960.783203125 245.454101562 960.783203125 140.909179688 c 0
 960.783203125 27.2724609375 915.328125 -6.818359375 758.510742188 -6.818359375 c 0
 658.510742188 -6.818359375 592.6015625 -25 451.692382812 -90.9091796875 c 0
 265.328125 -181.818359375 213.055664062 -190.909179688 142.6015625 -154.545898438 c 0
 53.96484375 -106.818359375 65.328125 -25 188.055664062 168.181640625 c 0
 265.328125 290.909179688 290.328125 345.454101562 263.055664062 334.090820312 c 0
 160.783203125 288.63671875 72.146484375 327.272460938 42.6015625 429.545898438 c 0
 31.2373046875 468.181640625 47.146484375 502.272460938 110.783203125 572.727539062 c 0
 197.146484375 665.909179688 310.783203125 713.63671875 547.146484375 754.545898438 c 0
710.783203125 631.818359375 m 0
 710.783203125 650 535.783203125 634.090820312 403.96484375 602.272460938 c 0
 274.418945312 572.727539062 138.055664062 479.545898438 172.146484375 445.454101562 c 0
 178.96484375 436.36328125 253.96484375 456.818359375 335.783203125 490.909179688 c 0
 485.783203125 550 551.692382812 563.63671875 551.692382812 534.090820312 c 0
 551.692382812 522.727539062 469.874023438 388.63671875 369.874023438 231.818359375 c 0
 269.874023438 75 199.418945312 -56.818359375 213.055664062 -61.36328125 c 0
 226.692382812 -65.9091796875 285.783203125 -43.181640625 342.6015625 -11.36328125 c 0
 488.055664062 65.9091796875 667.6015625 120.454101562 778.96484375 122.727539062 c 0
 853.96484375 122.727539062 865.328125 129.545898438 844.874023438 154.545898438 c 0
 810.783203125 195.454101562 708.510742188 195.454101562 551.692382812 154.545898438 c 0
 483.510742188 136.36328125 424.418945312 125 419.874023438 127.272460938 c 0
 417.6015625 131.818359375 481.237304688 243.181640625 563.055664062 377.272460938 c 0
 644.874023438 511.36328125 710.783203125 627.272460938 710.783203125 631.818359375 c 0
EndSplineSet
Validated: 33
EndChar

StartChar: zero
Encoding: 48 48 26
Width: 1000
HStem: 322.728 250<522.543 619.134> 613.637 72.7266<429.566 651.395>
LayerCount: 2
Fore
SplineSet
653.224609375 709.090820312 m 0
 700.952148438 740.909179688 725.952148438 736.36328125 787.315429688 695.454101562 c 0
 825.952148438 668.181640625 837.315429688 643.181640625 828.224609375 597.727539062 c 0
 821.40625 565.909179688 825.952148438 520.454101562 839.588867188 497.727539062 c 0
 907.770507812 370.454101562 825.952148438 95.4541015625 689.588867188 -4.5458984375 c 0
 569.133789062 -95.4541015625 473.6796875 -113.63671875 332.770507812 -79.5458984375 c 0
 214.588867188 -47.7275390625 207.770507812 -43.181640625 169.133789062 63.63671875 c 0
 57.7705078125 359.090820312 239.588867188 686.36328125 516.861328125 686.36328125 c 0
 573.6796875 686.36328125 635.04296875 697.727539062 653.224609375 709.090820312 c 0
732.770507812 595.454101562 m 0
 746.40625 640.909179688 703.224609375 659.090820312 666.861328125 625 c 0
 657.770507812 615.909179688 607.770507812 611.36328125 555.497070312 613.63671875 c 0
 460.04296875 620.454101562 312.315429688 554.545898438 312.315429688 504.545898438 c 0
 312.315429688 493.181640625 291.861328125 461.36328125 266.861328125 436.36328125 c 0
 241.861328125 411.36328125 219.133789062 368.181640625 219.133789062 340.909179688 c 0
 216.861328125 311.36328125 212.315429688 265.909179688 210.04296875 238.63671875 c 0
 207.770507812 209.090820312 219.133789062 159.090820312 235.04296875 127.272460938 c 0
 253.224609375 95.4541015625 266.861328125 54.5458984375 266.861328125 36.36328125 c 0
 266.861328125 2.2724609375 444.133789062 -29.5458984375 523.6796875 -9.0908203125 c 0
 610.04296875 11.36328125 700.952148438 95.4541015625 746.40625 195.454101562 c 0
 798.6796875 309.090820312 800.952148438 395.454101562 753.224609375 484.090820312 c 0
 735.04296875 520.454101562 725.952148438 572.727539062 732.770507812 595.454101562 c 0
457.770507812 540.909179688 m 0
 482.770507812 559.090820312 514.588867188 572.727539062 530.497070312 572.727539062 c 0
 594.133789062 572.727539062 582.770507812 522.727539062 494.133789062 411.36328125 c 0
 441.861328125 345.454101562 385.04296875 263.63671875 366.861328125 227.272460938 c 0
 314.588867188 125 287.315429688 150 294.133789062 295.454101562 c 0
 300.952148438 420.454101562 303.224609375 425 375.952148438 450 c 0
 416.861328125 461.36328125 441.861328125 481.818359375 432.770507812 490.909179688 c 0
 423.6796875 500 435.04296875 522.727539062 457.770507812 540.909179688 c 0
557.770507812 375 m 0
 646.40625 490.909179688 664.588867188 500 685.04296875 445.454101562 c 0
 721.40625 350 678.224609375 161.36328125 603.224609375 102.272460938 c 0
 555.497070312 61.36328125 444.133789062 45.4541015625 405.497070312 70.4541015625 c 0
 369.133789062 93.181640625 414.588867188 184.090820312 557.770507812 375 c 0
614.588867188 268.181640625 m 0
 619.133789062 297.727539062 621.40625 322.727539062 616.861328125 322.727539062 c 0
 600.952148438 322.727539062 498.6796875 152.272460938 507.770507812 143.181640625 c 0
 525.952148438 122.727539062 603.224609375 213.63671875 614.588867188 268.181640625 c 0
EndSplineSet
Validated: 33
EndChar

StartChar: one
Encoding: 49 49 27
Width: 1000
LayerCount: 2
Fore
SplineSet
413.979492188 752.272460938 m 0
 463.979492188 770.454101562 511.70703125 763.63671875 557.161132812 727.272460938 c 0
 573.0703125 715.909179688 582.161132812 645.454101562 577.616210938 538.63671875 c 0
 573.0703125 447.727539062 577.616210938 336.36328125 586.70703125 295.454101562 c 0
 600.34375 225 607.161132812 220.454101562 688.979492188 227.272460938 c 0
 782.161132812 236.36328125 861.70703125 186.36328125 861.70703125 118.181640625 c 0
 861.70703125 45.4541015625 754.888671875 -25 638.979492188 -31.818359375 c 0
 461.70703125 -43.181640625 388.979492188 -63.63671875 316.252929688 -122.727539062 c 0
 218.525390625 -206.818359375 148.0703125 -190.909179688 138.979492188 -84.0908203125 c 0
 132.161132812 -2.2724609375 175.34375 54.5458984375 304.888671875 129.545898438 c 0
 368.525390625 168.181640625 332.161132812 295.454101562 252.616210938 304.545898438 c 0
 202.616210938 309.090820312 191.252929688 325 184.434570312 379.545898438 c 0
 177.616210938 463.63671875 338.979492188 725 413.979492188 752.272460938 c 0
504.888671875 454.545898438 m 0
 488.979492188 729.545898438 466.252929688 745.454101562 350.34375 561.36328125 c 0
 225.34375 368.181640625 220.797851562 325 329.888671875 402.272460938 c 0
 377.616210938 434.090820312 379.888671875 431.818359375 391.252929688 338.63671875 c 0
 400.34375 286.36328125 411.70703125 211.36328125 420.797851562 170.454101562 c 0
 434.434570312 106.818359375 427.616210938 95.4541015625 354.888671875 61.36328125 c 0
 270.797851562 22.7275390625 186.70703125 -56.818359375 207.161132812 -75 c 0
 213.979492188 -81.818359375 266.252929688 -59.0908203125 325.34375 -27.2724609375 c 0
 398.0703125 13.63671875 479.888671875 36.36328125 579.888671875 45.4541015625 c 0
 720.797851562 56.818359375 788.979492188 90.9091796875 759.434570312 138.63671875 c 0
 752.616210938 152.272460938 704.888671875 156.818359375 648.0703125 150 c 0
 525.34375 131.818359375 520.797851562 143.181640625 504.888671875 454.545898438 c 0
EndSplineSet
Validated: 33
EndChar

StartChar: two
Encoding: 50 50 28
Width: 1000
VStem: 136.363 90.9092<438.352 519.346> 772.728 90.9092<181.449 226.806>
LayerCount: 2
Fore
SplineSet
336.36328125 709.090820312 m 0
 429.545898438 772.727539062 456.818359375 779.545898438 545.455078125 768.181640625 c 0
 600 759.090820312 661.36328125 740.909179688 677.272460938 722.727539062 c 0
 722.727539062 677.272460938 715.909179688 529.545898438 661.36328125 404.545898438 c 2
 613.63671875 295.454101562 l 1
 672.727539062 309.090820312 l 2
 761.36328125 331.818359375 863.63671875 284.090820312 863.63671875 220.454101562 c 0
 863.63671875 147.727539062 825 125 622.727539062 72.7275390625 c 0
 525 47.7275390625 425 6.818359375 400 -15.9091796875 c 0
 336.36328125 -75 234.090820312 -97.7275390625 193.181640625 -63.63671875 c 0
 145.455078125 -22.7275390625 150 81.818359375 204.545898438 129.545898438 c 0
 256.818359375 177.272460938 372.727539062 368.181640625 356.818359375 381.818359375 c 0
 352.272460938 388.63671875 320.455078125 379.545898438 286.36328125 365.909179688 c 0
 236.36328125 343.181640625 220.455078125 345.454101562 181.818359375 379.545898438 c 0
 156.818359375 402.272460938 136.36328125 436.36328125 136.36328125 454.545898438 c 0
 136.36328125 518.181640625 229.545898438 638.63671875 336.36328125 709.090820312 c 0
631.818359375 604.545898438 m 0
 625 675 563.63671875 706.818359375 463.63671875 690.909179688 c 0
 400 681.818359375 227.272460938 522.727539062 227.272460938 475 c 0
 227.272460938 409.090820312 284.090820312 431.818359375 361.36328125 527.272460938 c 0
 454.545898438 645.454101562 500 645.454101562 500 531.818359375 c 0
 500 445.454101562 365.909179688 184.090820312 265.909179688 77.2724609375 c 0
 188.63671875 -6.818359375 247.727539062 -25 359.090820312 50 c 0
 413.63671875 86.36328125 515.909179688 127.272460938 586.36328125 140.909179688 c 0
 765.909179688 179.545898438 772.727539062 181.818359375 772.727539062 211.36328125 c 0
 772.727539062 238.63671875 697.727539062 234.090820312 529.545898438 197.727539062 c 2
 456.818359375 181.818359375 l 1
 547.727539062 359.090820312 l 2
 604.545898438 472.727539062 636.36328125 563.63671875 631.818359375 604.545898438 c 0
EndSplineSet
Validated: 33
EndChar

StartChar: three
Encoding: 51 51 29
Width: 1000
LayerCount: 2
Fore
SplineSet
396.7734375 722.727539062 m 0
 521.7734375 781.818359375 578.591796875 788.63671875 669.500976562 754.545898438 c 0
 733.13671875 729.545898438 737.682617188 697.727539062 692.228515625 559.090820312 c 0
 680.864257812 520.454101562 689.955078125 506.818359375 746.7734375 481.818359375 c 0
 892.228515625 422.727539062 867.228515625 272.727539062 680.864257812 90.9091796875 c 0
 492.228515625 -95.4541015625 337.682617188 -127.272460938 210.41015625 -11.36328125 c 0
 149.045898438 43.181640625 142.228515625 145.454101562 194.500976562 188.63671875 c 0
 224.045898438 213.63671875 242.228515625 211.36328125 305.864257812 177.272460938 c 0
 387.682617188 131.818359375 430.864257812 143.181640625 508.13671875 229.545898438 c 0
 567.228515625 293.181640625 539.955078125 313.63671875 451.319335938 272.727539062 c 0
 412.682617188 252.272460938 360.41015625 243.181640625 335.41015625 250 c 0
 289.955078125 261.36328125 244.500976562 340.909179688 267.228515625 377.272460938 c 0
 274.045898438 388.63671875 260.41015625 411.36328125 237.682617188 427.272460938 c 0
 185.41015625 465.909179688 187.682617188 561.36328125 239.955078125 622.727539062 c 0
 264.955078125 647.727539062 335.41015625 693.181640625 396.7734375 722.727539062 c 0
635.41015625 629.545898438 m 0
 655.864257812 684.090820312 653.591796875 686.36328125 558.13671875 686.36328125 c 0
 485.41015625 686.36328125 435.41015625 668.181640625 367.228515625 618.181640625 c 0
 314.955078125 579.545898438 271.7734375 534.090820312 271.7734375 515.909179688 c 0
 271.7734375 463.63671875 305.864257812 475 389.955078125 550 c 0
 430.864257812 588.63671875 471.7734375 618.181640625 483.13671875 618.181640625 c 0
 528.591796875 618.181640625 430.864257812 427.272460938 371.7734375 404.545898438 c 0
 353.591796875 397.727539062 339.955078125 377.272460938 339.955078125 356.818359375 c 0
 339.955078125 320.454101562 385.41015625 311.36328125 419.500976562 343.181640625 c 0
 460.41015625 379.545898438 583.13671875 388.63671875 624.045898438 359.090820312 c 0
 664.955078125 329.545898438 662.682617188 325 614.955078125 247.727539062 c 0
 524.045898438 97.7275390625 351.319335938 25 276.319335938 100 c 0
 230.864257812 145.454101562 217.228515625 97.7275390625 260.41015625 50 c 0
 342.228515625 -40.9091796875 492.228515625 2.2724609375 637.682617188 156.818359375 c 0
 787.682617188 311.36328125 801.319335938 402.272460938 683.13671875 427.272460938 c 0
 535.41015625 461.36328125 537.682617188 456.818359375 578.591796875 518.181640625 c 0
 596.7734375 547.727539062 624.045898438 597.727539062 635.41015625 629.545898438 c 0
EndSplineSet
Validated: 33
EndChar

StartChar: four
Encoding: 52 52 30
Width: 1000
LayerCount: 2
Fore
SplineSet
620.58984375 754.545898438 m 0
 668.317382812 806.818359375 720.58984375 811.36328125 777.408203125 770.454101562 c 0
 813.771484375 743.181640625 813.771484375 720.454101562 791.043945312 493.181640625 c 0
 752.408203125 109.090820312 727.408203125 11.36328125 661.499023438 -40.9091796875 c 0
 591.043945312 -95.4541015625 556.953125 -97.7275390625 509.2265625 -52.2724609375 c 0
 484.2265625 -25 477.408203125 11.36328125 488.771484375 95.4541015625 c 0
 500.134765625 200 497.862304688 209.090820312 454.680664062 209.090820312 c 0
 429.680664062 209.090820312 381.953125 200 350.134765625 186.36328125 c 0
 306.953125 170.454101562 281.953125 175 243.317382812 206.818359375 c 2
 193.317382812 247.727539062 l 1
 245.58984375 438.63671875 l 2
 316.043945312 695.454101562 418.317382812 797.727539062 538.771484375 731.818359375 c 0
 570.58984375 715.909179688 591.043945312 720.454101562 620.58984375 754.545898438 c 0
736.499023438 670.454101562 m 0
 743.317382812 688.63671875 738.771484375 711.36328125 725.134765625 718.181640625 c 0
 688.771484375 740.909179688 609.2265625 638.63671875 609.2265625 570.454101562 c 0
 609.2265625 538.63671875 602.408203125 477.272460938 595.58984375 438.63671875 c 0
 581.953125 375 572.862304688 368.181640625 493.317382812 368.181640625 c 2
 406.953125 368.181640625 l 1
 452.408203125 497.727539062 l 2
 506.953125 656.818359375 506.953125 663.63671875 450.134765625 663.63671875 c 0
 400.134765625 663.63671875 386.499023438 638.63671875 327.408203125 431.818359375 c 0
 284.2265625 286.36328125 286.499023438 263.63671875 336.499023438 270.454101562 c 0
 354.680664062 272.727539062 420.58984375 281.818359375 481.953125 290.909179688 c 2
 593.317382812 304.545898438 l 1
 577.408203125 152.272460938 l 2
 566.043945312 34.0908203125 568.317382812 2.2724609375 591.043945312 9.0908203125 c 0
 645.58984375 27.2724609375 679.680664062 138.63671875 700.134765625 388.63671875 c 0
 713.771484375 525 729.680664062 652.272460938 736.499023438 670.454101562 c 0
EndSplineSet
Validated: 33
EndChar

StartChar: five
Encoding: 53 53 31
Width: 1000
HStem: 322.728 63.6357<359.378 435.296>
LayerCount: 2
Fore
SplineSet
544.990234375 727.272460938 m 0
 749.536132812 750 833.626953125 734.090820312 842.717773438 668.181640625 c 0
 854.081054688 595.454101562 813.171875 556.818359375 708.626953125 538.63671875 c 2
 619.990234375 522.727539062 l 1
 676.80859375 454.545898438 l 2
 744.990234375 372.727539062 747.262695312 343.181640625 685.899414062 213.63671875 c 0
 622.262695312 86.36328125 483.626953125 -18.181640625 372.262695312 -18.181640625 c 0
 135.899414062 -18.181640625 85.8994140625 240.909179688 256.353515625 568.181640625 c 0
 317.717773438 686.36328125 349.536132812 704.545898438 544.990234375 727.272460938 c 0
769.990234375 643.181640625 m 0
 783.626953125 665.909179688 617.717773438 665.909179688 472.262695312 643.181640625 c 0
 397.262695312 631.818359375 374.536132812 613.63671875 331.353515625 538.63671875 c 0
 256.353515625 406.818359375 263.171875 393.181640625 399.536132812 386.36328125 c 0
 506.353515625 379.545898438 517.717773438 375 524.536132812 320.454101562 c 0
 533.626953125 238.63671875 449.536132812 136.36328125 374.536132812 145.454101562 c 0
 319.990234375 152.272460938 301.80859375 172.727539062 265.444335938 265.909179688 c 0
 249.536132812 304.545898438 244.990234375 300 238.171875 238.63671875 c 0
 222.262695312 84.0908203125 333.626953125 11.36328125 465.444335938 88.63671875 c 0
 554.081054688 140.909179688 642.717773438 263.63671875 642.717773438 336.36328125 c 0
 642.717773438 390.909179688 567.717773438 459.090820312 506.353515625 459.090820312 c 0
 488.171875 459.090820312 458.626953125 468.181640625 440.444335938 479.545898438 c 0
 381.353515625 518.181640625 451.80859375 565.909179688 608.626953125 595.454101562 c 0
 690.444335938 611.36328125 763.171875 631.818359375 769.990234375 643.181640625 c 0
438.171875 290.909179688 m 0
 438.171875 309.090820312 417.717773438 322.727539062 392.717773438 322.727539062 c 0
 349.536132812 322.727539062 329.081054688 259.090820312 363.171875 225 c 0
 383.626953125 204.545898438 438.171875 252.272460938 438.171875 290.909179688 c 0
EndSplineSet
Validated: 33
EndChar

StartChar: six
Encoding: 54 54 32
Width: 1000
LayerCount: 2
Fore
SplineSet
504.005859375 727.272460938 m 0
 701.733398438 825 822.188476562 661.36328125 644.915039062 538.63671875 c 2
 558.551757812 481.818359375 l 1
 642.642578125 481.818359375 l 2
 713.09765625 481.818359375 733.551757812 470.454101562 772.188476562 404.545898438 c 0
 833.551757812 306.818359375 831.279296875 256.818359375 767.642578125 161.36328125 c 0
 697.188476562 56.818359375 558.551757812 -15.9091796875 390.370117188 -31.818359375 c 2
 251.733398438 -47.7275390625 l 1
 217.642578125 34.0908203125 l 2
 115.370117188 279.545898438 249.4609375 602.272460938 504.005859375 727.272460938 c 0
649.4609375 665.909179688 m 0
 615.370117188 718.181640625 485.82421875 650 372.188476562 520.454101562 c 0
 281.279296875 415.909179688 235.82421875 225 274.4609375 106.818359375 c 0
 299.4609375 29.5458984375 304.005859375 27.2724609375 394.915039062 40.9091796875 c 0
 649.4609375 81.818359375 794.915039062 243.181640625 694.915039062 377.272460938 c 0
 654.005859375 431.818359375 547.188476562 413.63671875 440.370117188 331.818359375 c 0
 392.642578125 295.454101562 365.370117188 286.36328125 365.370117188 304.545898438 c 0
 367.642578125 370.454101562 474.4609375 518.181640625 565.370117188 579.545898438 c 0
 617.642578125 615.909179688 656.279296875 654.545898438 649.4609375 665.909179688 c 0
469.915039062 254.545898438 m 0
 556.279296875 350 583.551757812 356.818359375 624.4609375 293.181640625 c 0
 658.551757812 240.909179688 538.09765625 118.181640625 451.733398438 118.181640625 c 0
 367.642578125 118.181640625 372.188476562 145.454101562 469.915039062 254.545898438 c 0
EndSplineSet
Validated: 33
EndChar

StartChar: seven
Encoding: 55 55 33
Width: 1000
HStem: 665.909 70.4541<272.615 592.961>
LayerCount: 2
Fore
SplineSet
573.360351562 752.272460938 m 0
 716.541992188 788.63671875 777.90625 781.818359375 802.90625 725 c 0
 821.087890625 681.818359375 811.997070312 652.272460938 746.087890625 540.909179688 c 0
 696.087890625 459.090820312 652.90625 343.181640625 630.178710938 234.090820312 c 0
 609.723632812 138.63671875 589.26953125 47.7275390625 582.451171875 31.818359375 c 0
 571.087890625 -4.5458984375 484.723632812 -36.36328125 430.178710938 -22.7275390625 c 0
 352.90625 -2.2724609375 341.541992188 70.4541015625 389.26953125 250 c 0
 430.178710938 411.36328125 430.178710938 415.909179688 389.26953125 402.272460938 c 0
 318.815429688 379.545898438 266.541992188 409.090820312 225.6328125 493.181640625 c 0
 143.815429688 665.909179688 198.360351562 745.454101562 391.541992188 736.36328125 c 0
 448.360351562 734.090820312 530.178710938 740.909179688 573.360351562 752.272460938 c 0
727.90625 693.181640625 m 0
 736.997070312 711.36328125 718.815429688 711.36328125 641.541992188 686.36328125 c 0
 609.723632812 677.272460938 516.541992188 668.181640625 432.451171875 665.909179688 c 0
 348.360351562 663.63671875 273.360351562 654.545898438 266.541992188 640.909179688 c 0
 241.541992188 602.272460938 321.087890625 481.818359375 371.087890625 481.818359375 c 0
 409.723632812 481.818359375 416.541992188 493.181640625 405.178710938 534.090820312 c 0
 393.815429688 581.818359375 402.90625 588.63671875 505.178710938 609.090820312 c 0
 568.815429688 622.727539062 618.815429688 627.272460938 618.815429688 622.727539062 c 0
 618.815429688 615.909179688 598.360351562 579.545898438 575.6328125 540.909179688 c 0
 530.178710938 468.181640625 436.997070312 163.63671875 436.997070312 88.63671875 c 0
 436.997070312 61.36328125 450.6328125 50 475.6328125 54.5458984375 c 0
 502.90625 59.0908203125 521.087890625 106.818359375 543.815429688 220.454101562 c 0
 561.997070312 309.090820312 607.451171875 445.454101562 648.360351562 527.272460938 c 0
 689.26953125 609.090820312 725.6328125 681.818359375 727.90625 693.181640625 c 0
EndSplineSet
Validated: 33
EndChar

StartChar: eight
Encoding: 56 56 34
Width: 1000
LayerCount: 2
Fore
SplineSet
460.495117188 752.272460938 m 0
 610.495117188 795.454101562 778.676757812 738.63671875 778.676757812 647.727539062 c 0
 778.676757812 629.545898438 742.313476562 581.818359375 699.131835938 543.181640625 c 0
 655.950195312 504.545898438 619.5859375 461.36328125 619.5859375 445.454101562 c 0
 619.5859375 431.818359375 685.495117188 390.909179688 765.041015625 354.545898438 c 0
 1012.76757812 247.727539062 980.950195312 170.454101562 635.495117188 36.36328125 c 0
 401.404296875 -52.2724609375 276.404296875 -61.36328125 210.495117188 4.5458984375 c 0
 155.950195312 59.0908203125 153.676757812 113.63671875 201.404296875 227.272460938 c 2
 235.495117188 311.36328125 l 1
 155.950195312 375 l 2
 49.1318359375 461.36328125 46.8583984375 545.454101562 142.313476562 627.272460938 c 0
 180.950195312 659.090820312 251.404296875 695.454101562 296.858398438 709.090820312 c 0
 342.313476562 720.454101562 417.313476562 740.909179688 460.495117188 752.272460938 c 0
678.676757812 661.36328125 m 0
 655.950195312 697.727539062 487.767578125 686.36328125 324.131835938 636.36328125 c 0
 244.5859375 611.36328125 142.313476562 536.36328125 142.313476562 500 c 0
 142.313476562 488.63671875 185.495117188 452.272460938 240.041015625 418.181640625 c 2
 337.767578125 356.818359375 l 1
 296.858398438 265.909179688 l 2
 192.313476562 29.5458984375 269.5859375 -18.181640625 578.676757812 97.7275390625 c 0
 885.495117188 213.63671875 885.495117188 211.36328125 680.950195312 306.818359375 c 0
 505.950195312 388.63671875 505.950195312 388.63671875 530.950195312 452.272460938 c 0
 546.858398438 486.36328125 587.767578125 543.181640625 626.404296875 577.272460938 c 0
 662.767578125 609.090820312 685.495117188 647.727539062 678.676757812 661.36328125 c 0
374.131835938 572.727539062 m 0
 415.041015625 581.818359375 451.404296875 590.909179688 455.950195312 593.181640625 c 0
 474.131835938 600 455.950195312 529.545898438 428.676757812 493.181640625 c 0
 399.131835938 452.272460938 394.5859375 452.272460938 335.495117188 490.909179688 c 0
 265.041015625 536.36328125 269.5859375 547.727539062 374.131835938 572.727539062 c 0
415.041015625 211.36328125 m 0
 465.041015625 309.090820312 469.5859375 309.090820312 628.676757812 240.909179688 c 0
 692.313476562 215.909179688 694.5859375 211.36328125 653.676757812 195.454101562 c 0
 628.676757812 186.36328125 574.131835938 165.909179688 530.950195312 150 c 0
 490.041015625 131.818359375 435.495117188 118.181640625 412.767578125 118.181640625 c 0
 369.5859375 118.181640625 369.5859375 120.454101562 415.041015625 211.36328125 c 0
EndSplineSet
Validated: 33
EndChar

StartChar: nine
Encoding: 57 57 35
Width: 1000
VStem: 426.916 88.6367<124.364 186.363> 613.28 90.9092<-62.4374 266.773>
LayerCount: 2
Fore
SplineSet
511.0078125 772.727539062 m 0
 629.189453125 811.36328125 772.37109375 761.36328125 772.37109375 679.545898438 c 0
 772.37109375 652.272460938 756.461914062 550 738.280273438 452.272460938 c 0
 720.098632812 354.545898438 704.189453125 193.181640625 704.189453125 95.4541015625 c 0
 704.189453125 -63.63671875 699.643554688 -88.63671875 654.189453125 -118.181640625 c 0
 592.825195312 -161.36328125 513.280273438 -165.909179688 481.461914062 -125 c 0
 470.098632812 -111.36328125 451.916015625 -34.0908203125 442.825195312 45.4541015625 c 2
 426.916015625 186.36328125 l 1
 349.643554688 186.36328125 l 2
 297.37109375 186.36328125 265.552734375 200 249.643554688 229.545898438 c 0
 215.552734375 295.454101562 222.37109375 497.727539062 261.0078125 572.727539062 c 0
 299.643554688 650 413.280273438 738.63671875 511.0078125 772.727539062 c 0
679.189453125 688.63671875 m 0
 595.098632812 740.909179688 440.552734375 681.818359375 342.825195312 559.090820312 c 0
 304.189453125 509.090820312 295.098632812 472.727539062 299.643554688 381.818359375 c 0
 306.461914062 272.727539062 311.0078125 265.909179688 363.280273438 272.727539062 c 0
 392.825195312 275 440.552734375 300 467.825195312 325 c 2
 517.825195312 370.454101562 l 1
 515.552734375 168.181640625 l 2
 515.552734375 -47.7275390625 526.916015625 -90.9091796875 579.189453125 -70.4541015625 c 0
 601.916015625 -63.63671875 613.280273438 -25 613.280273438 36.36328125 c 0
 613.280273438 145.454101562 672.37109375 565.909179688 695.098632812 627.272460938 c 0
 704.189453125 652.272460938 699.643554688 675 679.189453125 688.63671875 c 0
445.098632812 575 m 0
 465.552734375 597.727539062 504.189453125 618.181640625 529.189453125 618.181640625 c 0
 565.552734375 618.181640625 570.098632812 606.818359375 558.734375 559.090820312 c 0
 540.552734375 488.63671875 436.0078125 345.454101562 401.916015625 345.454101562 c 0
 367.825195312 345.454101562 399.643554688 525 445.098632812 575 c 0
EndSplineSet
Validated: 33
EndChar

StartChar: a
Encoding: 97 97 36
Width: 1000
Flags: W
LayerCount: 2
Fore
SplineSet
417.678710938 740.909179688 m 0
 443.814453125 746.590820312 477.905273438 748.86328125 493.814453125 745.454101562 c 0
 531.314453125 738.63671875 618.814453125 667.045898438 618.814453125 644.318359375 c 0
 618.814453125 589.772460938 798.360351562 227.272460938 869.951171875 136.36328125 c 0
 943.814453125 43.181640625 924.49609375 -15.9091796875 788.1328125 -105.681640625 c 0
 730.178710938 -144.318359375 698.360351562 -142.045898438 606.314453125 -94.318359375 c 0
 561.99609375 -70.4541015625 506.314453125 -52.2724609375 466.541992188 -47.7275390625 c 0
 401.76953125 -38.63671875 400.6328125 -39.7724609375 361.99609375 -79.5458984375 c 0
 340.405273438 -102.272460938 301.76953125 -130.681640625 277.905273438 -143.181640625 c 0
 236.99609375 -163.63671875 229.041992188 -164.772460938 194.951171875 -150 c 0
 142.678710938 -128.409179688 107.451171875 -80.681640625 107.451171875 -32.9541015625 c 0
 107.451171875 -11.36328125 101.76953125 15.9091796875 94.951171875 29.5458984375 c 0
 77.9052734375 60.2275390625 90.4052734375 98.86328125 130.178710938 145.454101562 c 0
 167.678710938 187.5 236.99609375 384.090820312 249.49609375 479.545898438 c 0
 252.905273438 509.090820312 258.586914062 548.86328125 261.99609375 569.318359375 c 0
 265.405273438 589.772460938 290.405273438 634.090820312 317.678710938 668.181640625 c 0
 359.723632812 718.181640625 377.905273438 732.954101562 417.678710938 740.909179688 c 0
508.586914062 632.954101562 m 0
 455.178710938 692.045898438 365.405273438 621.590820312 352.905273438 509.090820312 c 0
 341.541992188 413.63671875 319.951171875 337.5 288.1328125 275 c 0
 282.451171875 263.63671875 277.905273438 245.454101562 277.905273438 235.227539062 c 0
 277.905273438 198.86328125 248.360351562 130.681640625 221.086914062 101.13671875 c 0
 196.086914062 73.86328125 194.951171875 71.5908203125 214.26953125 51.13671875 c 0
 230.178710938 34.0908203125 231.314453125 23.86328125 222.223632812 5.681640625 c 0
 206.314453125 -23.86328125 206.314453125 -63.63671875 222.223632812 -63.63671875 c 0
 249.49609375 -63.63671875 300.6328125 -14.7724609375 309.723632812 19.318359375 c 2
 318.814453125 55.681640625 l 1
 404.041992188 52.2724609375 l 2
 496.086914062 47.7275390625 617.678710938 14.7724609375 665.405273438 -19.318359375 c 0
 708.586914062 -50 721.086914062 -46.5908203125 777.905273438 3.4091796875 c 2
 829.041992188 48.86328125 l 1
 798.360351562 80.681640625 l 2
 773.360351562 106.818359375 630.178710938 347.727539062 630.178710938 363.63671875 c 0
 630.178710938 365.909179688 617.678710938 394.318359375 602.905273438 427.272460938 c 0
 586.99609375 461.36328125 564.26953125 515.909179688 550.6328125 550 c 0
 536.99609375 584.090820312 517.678710938 621.590820312 508.586914062 632.954101562 c 0
418.814453125 348.86328125 m 0
 425.6328125 365.909179688 436.99609375 379.545898438 443.814453125 379.545898438 c 0
 461.99609375 379.545898438 555.178710938 186.36328125 543.814453125 175 c 0
 538.1328125 170.454101562 496.086914062 163.63671875 450.6328125 160.227539062 c 0
 385.860351562 156.818359375 365.405273438 159.090820312 360.860351562 170.454101562 c 0
 355.178710938 184.090820312 371.086914062 231.818359375 418.814453125 348.86328125 c 0
EndSplineSet
Validated: 33
EndChar

StartChar: b
Encoding: 98 98 37
Width: 1000
Flags: W
HStem: -147.728 81.8184<303.631 495.641> 425 120.454<415.736 468.11>
LayerCount: 2
Fore
SplineSet
536.681640625 718.181640625 m 0
 651.454101562 732.954101562 751.454101562 713.63671875 796.909179688 669.318359375 c 0
 825.318359375 640.909179688 818.5 582.954101562 781 523.86328125 c 2
 746.909179688 470.454101562 l 1
 799.181640625 419.318359375 l 1
 851.454101562 369.318359375 l 1
 846.909179688 297.727539062 l 2
 840.090820312 192.045898438 795.772460938 109.090820312 691.2265625 3.4091796875 c 0
 576.454101562 -109.090820312 502.590820312 -146.590820312 390.090820312 -147.727539062 c 0
 300.318359375 -148.86328125 267.36328125 -134.090820312 213.954101562 -71.5908203125 c 0
 145.772460938 6.818359375 140.090820312 61.36328125 194.635742188 112.5 c 0
 232.135742188 146.590820312 233.272460938 150 221.909179688 198.86328125 c 0
 216.2265625 226.13671875 208.272460938 279.545898438 204.86328125 317.045898438 c 0
 201.454101562 356.818359375 190.090820312 396.590820312 177.590820312 411.36328125 c 0
 149.181640625 447.727539062 140.090820312 497.727539062 157.135742188 529.545898438 c 0
 165.090820312 544.318359375 201.454101562 593.181640625 238.954101562 639.772460938 c 2
 307.135742188 722.727539062 l 1
 387.818359375 715.909179688 l 2
 432.135742188 712.5 499.181640625 713.63671875 536.681640625 718.181640625 c 0
725.318359375 622.727539062 m 0
 699.181640625 646.590820312 569.635742188 655.681640625 496.909179688 639.772460938 c 0
 468.5 634.090820312 421.909179688 631.818359375 392.36328125 635.227539062 c 2
 340.090820312 640.909179688 l 1
 287.818359375 573.86328125 l 2
 229.86328125 498.86328125 225.318359375 481.818359375 258.272460938 461.36328125 c 0
 276.454101562 450 281 435.227539062 281 380.681640625 c 0
 281 343.181640625 287.818359375 280.681640625 296.909179688 240.909179688 c 0
 306 201.13671875 317.36328125 138.63671875 321.909179688 102.272460938 c 2
 329.86328125 35.2275390625 l 1
 287.818359375 42.0458984375 l 2
 234.409179688 50 233.272460938 30.681640625 284.409179688 -26.13671875 c 0
 320.772460938 -64.7724609375 326.454101562 -67.0458984375 392.36328125 -65.9091796875 c 0
 470.772460938 -64.7724609375 519.635742188 -43.181640625 603.7265625 26.13671875 c 0
 699.181640625 106.818359375 759.409179688 195.454101562 774.181640625 279.545898438 c 0
 785.544921875 340.909179688 766.2265625 365.909179688 682.135742188 404.545898438 c 2
 608.272460938 437.5 l 1
 665.090820312 496.590820312 l 2
 742.36328125 578.409179688 751.454101562 598.86328125 725.318359375 622.727539062 c 0
457.135742188 545.454101562 m 0
 543.5 571.590820312 610.544921875 560.227539062 595.772460938 522.727539062 c 0
 588.954101562 506.818359375 436.681640625 425 412.818359375 425 c 0
 408.272460938 425 406 448.86328125 408.272460938 478.409179688 c 0
 411.681640625 530.681640625 412.818359375 532.954101562 457.135742188 545.454101562 c 0
424.181640625 313.63671875 m 0
 434.409179688 329.545898438 565.090820312 323.86328125 601.454101562 304.545898438 c 0
 634.409179688 287.5 635.544921875 284.090820312 631 234.090820312 c 0
 623.044921875 161.36328125 571.909179688 79.5458984375 517.36328125 54.5458984375 c 0
 451.454101562 25 445.772460938 32.9541015625 432.135742188 176.13671875 c 0
 424.181640625 246.590820312 421.909179688 309.090820312 424.181640625 313.63671875 c 0
553.7265625 230.681640625 m 0
 553.7265625 237.5 543.5 243.181640625 531 243.181640625 c 0
 513.954101562 243.181640625 508.272460938 235.227539062 508.272460938 215.909179688 c 0
 508.272460938 200 512.818359375 185.227539062 518.5 180.681640625 c 0
 529.86328125 173.86328125 553.7265625 209.090820312 553.7265625 230.681640625 c 0
EndSplineSet
Validated: 33
EndChar

StartChar: c
Encoding: 99 99 38
Width: 1000
Flags: W
HStem: -177.272 409.091<442.536 756.173>
LayerCount: 2
Fore
SplineSet
458.4453125 686.36328125 m 0
 565.263671875 745.454101562 626.626953125 743.181640625 699.354492188 677.272460938 c 0
 753.900390625 631.818359375 762.991210938 606.818359375 762.991210938 504.545898438 c 0
 762.991210938 393.181640625 756.172851562 377.272460938 674.354492188 306.818359375 c 0
 626.626953125 265.909179688 562.991210938 231.818359375 533.4453125 231.818359375 c 0
 478.900390625 231.818359375 469.809570312 215.909179688 499.354492188 168.181640625 c 0
 515.263671875 145.454101562 540.263671875 150 619.809570312 184.090820312 c 0
 674.354492188 211.36328125 735.717773438 231.818359375 756.172851562 231.818359375 c 0
 815.263671875 231.818359375 874.354492188 150 858.4453125 86.36328125 c 0
 833.4453125 -13.63671875 576.626953125 -177.272460938 442.536132812 -177.272460938 c 0
 222.08203125 -177.272460938 62.9912109375 152.272460938 176.626953125 375 c 0
 237.991210938 490.909179688 372.08203125 640.909179688 458.4453125 686.36328125 c 0
640.263671875 584.090820312 m 0
 592.536132812 643.181640625 528.900390625 620.454101562 419.809570312 511.36328125 c 0
 274.354492188 361.36328125 224.354492188 245.454101562 256.172851562 127.272460938 c 0
 310.717773438 -70.4541015625 437.991210938 -113.63671875 622.08203125 2.2724609375 c 0
 787.991210938 109.090820312 799.354492188 154.545898438 635.717773438 70.4541015625 c 0
 515.263671875 9.0908203125 442.536132812 27.2724609375 399.354492188 129.545898438 c 0
 353.900390625 238.63671875 358.4453125 315.909179688 415.263671875 406.818359375 c 0
 469.809570312 495.454101562 517.536132812 495.454101562 508.4453125 404.545898438 c 0
 501.626953125 340.909179688 535.717773438 327.272460938 597.08203125 375 c 0
 649.354492188 413.63671875 674.354492188 543.181640625 640.263671875 584.090820312 c 0
EndSplineSet
Validated: 33
EndChar

StartChar: d
Encoding: 100 100 39
Width: 1000
Flags: W
HStem: -171.591 85.2275<306.814 386.633>
VStem: 781.665 79.5449<299.716 404.721>
LayerCount: 2
Fore
SplineSet
286.209960938 711.36328125 m 0
 357.80078125 723.86328125 558.9375 653.409179688 693.028320312 569.318359375 c 0
 800.983398438 501.13671875 861.209960938 427.272460938 861.209960938 360.227539062 c 0
 861.209960938 238.63671875 653.255859375 -6.818359375 445.30078125 -131.818359375 c 0
 389.619140625 -165.909179688 369.165039062 -171.590820312 312.346679688 -171.590820312 c 0
 255.528320312 -170.454101562 241.892578125 -165.909179688 223.709960938 -144.318359375 c 0
 197.57421875 -112.5 196.4375 -78.4091796875 220.30078125 -31.818359375 c 0
 235.07421875 -2.2724609375 235.07421875 18.181640625 225.983398438 90.9091796875 c 0
 219.165039062 138.63671875 210.07421875 181.818359375 206.665039062 187.5 c 0
 203.255859375 193.181640625 200.983398438 247.727539062 200.983398438 310.227539062 c 0
 200.983398438 400 197.57421875 426.13671875 182.80078125 438.63671875 c 0
 155.528320312 461.36328125 131.665039062 525 140.755859375 553.409179688 c 0
 153.255859375 592.045898438 258.9375 706.818359375 286.209960938 711.36328125 c 0
414.619140625 606.818359375 m 0
 377.119140625 619.318359375 337.346679688 629.545898438 325.983398438 629.545898438 c 0
 300.983398438 629.545898438 224.846679688 539.772460938 232.80078125 519.318359375 c 0
 236.209960938 511.36328125 249.846679688 504.545898438 263.483398438 504.545898438 c 0
 310.07421875 504.545898438 318.028320312 489.772460938 298.709960938 444.318359375 c 0
 274.846679688 387.5 277.119140625 321.590820312 306.665039062 137.5 c 0
 325.983398438 12.5 328.255859375 -25 318.028320312 -42.0458984375 c 0
 297.57421875 -73.86328125 300.983398438 -86.36328125 330.528320312 -86.36328125 c 0
 379.392578125 -86.36328125 547.57421875 37.5 660.07421875 157.954101562 c 0
 708.9375 209.090820312 781.665039062 323.86328125 781.665039062 347.727539062 c 0
 781.665039062 429.545898438 630.528320312 536.36328125 414.619140625 606.818359375 c 0
411.209960938 442.045898438 m 0
 418.028320312 468.181640625 422.57421875 471.590820312 449.846679688 464.772460938 c 0
 494.165039062 454.545898438 589.619140625 397.727539062 621.4375 363.63671875 c 0
 672.57421875 309.090820312 649.846679688 236.36328125 545.30078125 127.272460938 c 0
 479.392578125 57.9541015625 457.80078125 47.7275390625 447.57421875 81.818359375 c 0
 423.709960938 162.5 399.846679688 397.727539062 411.209960938 442.045898438 c 0
548.709960938 264.772460938 m 0
 563.483398438 294.318359375 563.483398438 298.86328125 538.483398438 321.590820312 c 0
 504.392578125 353.409179688 497.57421875 343.181640625 505.528320312 275 c 0
 512.346679688 217.045898438 522.57421875 214.772460938 548.709960938 264.772460938 c 0
EndSplineSet
Validated: 33
EndChar

StartChar: e
Encoding: 101 101 40
Width: 1000
Flags: W
HStem: -177.272 113.636<292.078 413.923> 318.182 200<492.529 669.014>
VStem: 411.7 500<368.182 565.909>
LayerCount: 2
Fore
SplineSet
373.063476562 681.818359375 m 0
 413.97265625 693.181640625 520.791015625 704.545898438 611.700195312 706.818359375 c 0
 800.336914062 709.090820312 911.700195312 656.818359375 911.700195312 565.909179688 c 0
 911.700195312 513.63671875 829.881835938 413.63671875 784.427734375 413.63671875 c 0
 748.063476562 413.63671875 795.791015625 275 852.609375 211.36328125 c 0
 882.154296875 179.545898438 888.97265625 147.727539062 879.881835938 106.818359375 c 0
 868.518554688 59.0908203125 818.518554688 25 634.427734375 -63.63671875 c 0
 507.154296875 -127.272460938 375.336914062 -177.272460938 338.97265625 -177.272460938 c 0
 259.427734375 -177.272460938 168.518554688 -93.181640625 150.336914062 -2.2724609375 c 0
 141.245117188 31.818359375 120.791015625 97.7275390625 104.881835938 140.909179688 c 0
 79.8818359375 211.36328125 82.154296875 229.545898438 118.518554688 300 c 0
 148.063476562 352.272460938 157.154296875 402.272460938 148.063476562 443.181640625 c 0
 136.700195312 495.454101562 148.063476562 518.181640625 218.518554688 581.818359375 c 0
 263.97265625 622.727539062 332.154296875 668.181640625 373.063476562 681.818359375 c 0
775.336914062 572.727539062 m 0
 709.427734375 615.909179688 473.063476562 597.727539062 368.518554688 545.454101562 c 0
 275.336914062 495.454101562 268.518554688 488.63671875 263.97265625 384.090820312 c 0
 259.427734375 325 248.063476562 263.63671875 234.427734375 247.727539062 c 0
 218.518554688 229.545898438 220.791015625 184.090820312 241.245117188 100 c 0
 279.881835938 -45.4541015625 291.245117188 -63.63671875 338.97265625 -63.63671875 c 0
 409.427734375 -63.63671875 777.609375 125 752.609375 150 c 0
 738.97265625 163.63671875 693.518554688 150 618.518554688 111.36328125 c 0
 463.97265625 25 420.791015625 29.5458984375 400.336914062 131.818359375 c 0
 382.154296875 231.818359375 407.154296875 254.545898438 538.97265625 254.545898438 c 0
 598.063476562 254.545898438 645.791015625 268.181640625 663.97265625 290.909179688 c 0
 693.518554688 325 682.154296875 327.272460938 552.609375 318.181640625 c 0
 413.97265625 309.090820312 411.700195312 309.090820312 411.700195312 368.181640625 c 0
 411.700195312 470.454101562 457.154296875 504.545898438 604.881835938 518.181640625 c 0
 786.700195312 534.090820312 818.518554688 545.454101562 775.336914062 572.727539062 c 0
EndSplineSet
Validated: 33
EndChar

StartChar: f
Encoding: 102 102 41
Width: 1000
Flags: W
HStem: 186.363 111.364<491.6 649.684>
VStem: 387.5 102.273<129.36 184.35>
LayerCount: 2
Fore
SplineSet
496.591796875 754.545898438 m 0
 662.5 781.818359375 703.41015625 779.545898438 787.5 745.454101562 c 0
 855.681640625 715.909179688 867.044921875 700 867.044921875 634.090820312 c 0
 867.044921875 575 853.41015625 545.454101562 810.2265625 518.181640625 c 0
 755.681640625 481.818359375 755.681640625 479.545898438 789.7734375 422.727539062 c 0
 821.591796875 377.272460938 823.86328125 354.545898438 801.13671875 309.090820312 c 0
 773.86328125 245.454101562 653.41015625 186.36328125 553.41015625 186.36328125 c 2
 489.7734375 186.36328125 l 1
 505.681640625 56.818359375 l 2
 528.41015625 -122.727539062 485.2265625 -186.36328125 335.2265625 -195.454101562 c 0
 232.955078125 -202.272460938 228.41015625 -200 194.318359375 -118.181640625 c 0
 171.591796875 -65.9091796875 155.681640625 75 146.591796875 275 c 2
 132.955078125 586.36328125 l 1
 214.7734375 670.454101562 l 2
 267.044921875 722.727539062 314.7734375 750 342.044921875 743.181640625 c 0
 367.044921875 738.63671875 435.2265625 743.181640625 496.591796875 754.545898438 c 0
748.86328125 643.181640625 m 0
 712.5 665.909179688 644.318359375 665.909179688 492.044921875 638.63671875 c 0
 430.681640625 627.272460938 367.044921875 622.727539062 351.13671875 629.545898438 c 0
 335.2265625 634.090820312 303.41015625 611.36328125 276.13671875 579.545898438 c 0
 223.86328125 511.36328125 219.318359375 422.727539062 260.2265625 140.909179688 c 0
 287.5 -34.0908203125 294.318359375 -52.2724609375 342.044921875 -59.0908203125 c 0
 392.044921875 -68.181640625 394.318359375 -63.63671875 387.5 97.7275390625 c 0
 378.41015625 281.818359375 389.7734375 295.454101562 551.13671875 297.727539062 c 0
 594.318359375 300 651.13671875 313.63671875 676.13671875 331.818359375 c 0
 717.044921875 363.63671875 717.044921875 365.909179688 678.41015625 381.818359375 c 0
 655.681640625 390.909179688 576.13671875 390.909179688 501.13671875 384.090820312 c 2
 367.044921875 368.181640625 l 1
 367.044921875 445.454101562 l 2
 367.044921875 513.63671875 376.13671875 522.727539062 455.681640625 545.454101562 c 0
 576.13671875 581.818359375 619.318359375 579.545898438 603.41015625 538.63671875 c 0
 582.955078125 488.63671875 610.2265625 495.454101562 698.86328125 565.909179688 c 0
 757.955078125 609.090820312 771.591796875 629.545898438 748.86328125 643.181640625 c 0
EndSplineSet
Validated: 33
EndChar

StartChar: g
Encoding: 103 103 42
Width: 1000
Flags: W
HStem: -170.454 129.545<611.373 703.911>
VStem: 713.077 190.909<118.182 361.363>
LayerCount: 2
Fore
SplineSet
472.16796875 781.818359375 m 0
 519.895507812 802.272460938 513.077148438 804.545898438 599.44140625 763.63671875 c 0
 685.8046875 722.727539062 722.16796875 636.36328125 681.258789062 572.727539062 c 0
 660.8046875 538.63671875 667.623046875 529.545898438 728.986328125 518.181640625 c 0
 815.350585938 500 903.986328125 420.454101562 903.986328125 361.36328125 c 0
 903.986328125 336.36328125 881.258789062 281.818359375 856.258789062 238.63671875 c 0
 813.077148438 168.181640625 810.8046875 150 833.532226562 70.4541015625 c 0
 867.623046875 -40.9091796875 851.713867188 -93.181640625 774.44140625 -143.181640625 c 0
 733.532226562 -170.454101562 690.350585938 -179.545898438 622.16796875 -170.454101562 c 0
 572.16796875 -163.63671875 490.350585938 -168.181640625 442.623046875 -181.818359375 c 0
 372.16796875 -202.272460938 342.623046875 -200 278.986328125 -170.454101562 c 0
 140.350585938 -104.545898438 58.5322265625 143.181640625 113.077148438 338.63671875 c 0
 156.258789062 497.727539062 338.077148438 720.454101562 472.16796875 781.818359375 c 0
572.16796875 643.181640625 m 0
 556.258789062 670.454101562 494.895507812 668.181640625 444.895507812 640.909179688 c 0
 424.44140625 627.272460938 365.350585938 554.545898438 315.350585938 479.545898438 c 0
 233.532226562 354.545898438 222.16796875 325 222.16796875 204.545898438 c 0
 222.16796875 127.272460938 238.077148438 40.9091796875 258.532226562 0 c 0
 292.623046875 -63.63671875 301.713867188 -68.181640625 394.895507812 -56.818359375 c 0
 451.713867188 -52.2724609375 515.350585938 -29.5458984375 538.077148438 -9.0908203125 c 0
 588.077148438 36.36328125 608.532226562 36.36328125 608.532226562 -6.818359375 c 0
 608.532226562 -27.2724609375 628.986328125 -40.9091796875 660.8046875 -40.9091796875 c 0
 710.8046875 -40.9091796875 713.077148438 -34.0908203125 713.077148438 118.181640625 c 0
 710.8046875 250 717.623046875 281.818359375 756.258789062 309.090820312 c 0
 860.8046875 386.36328125 658.532226562 429.545898438 522.16796875 359.090820312 c 0
 397.16796875 293.181640625 363.077148438 195.454101562 483.532226562 250 c 0
 590.350585938 297.727539062 613.077148438 286.36328125 594.895507812 193.181640625 c 0
 569.895507812 36.36328125 424.44140625 -25 365.350585938 95.4541015625 c 0
 303.986328125 215.909179688 347.16796875 481.818359375 426.713867188 481.818359375 c 0
 474.44140625 481.818359375 592.623046875 611.36328125 572.16796875 643.181640625 c 0
EndSplineSet
Validated: 33
EndChar

StartChar: h
Encoding: 104 104 43
Width: 1000
Flags: W
VStem: 386.787 204.546<369.069 545.599> 682.241 113.637<446.023 685.699>
LayerCount: 2
Fore
SplineSet
539.059570312 727.272460938 m 0
 600.423828125 793.181640625 623.150390625 802.272460938 675.423828125 788.63671875 c 0
 777.696289062 763.63671875 795.877929688 734.090820312 795.877929688 597.727539062 c 0
 795.877929688 515.909179688 809.514648438 450 832.241210938 418.181640625 c 0
 857.241210938 381.818359375 864.059570312 345.454101562 850.423828125 304.545898438 c 0
 841.333007812 270.454101562 834.514648438 193.181640625 834.514648438 131.818359375 c 0
 836.787109375 -13.63671875 804.96875 -97.7275390625 734.514648438 -154.545898438 c 0
 664.059570312 -209.090820312 575.423828125 -213.63671875 518.60546875 -161.36328125 c 0
 479.96875 -127.272460938 473.150390625 -127.272460938 400.423828125 -165.909179688 c 0
 327.696289062 -204.545898438 318.60546875 -206.818359375 264.059570312 -170.454101562 c 0
 232.241210938 -147.727539062 200.423828125 -109.090820312 195.877929688 -79.5458984375 c 0
 170.877929688 29.5458984375 154.96875 161.36328125 145.877929688 345.454101562 c 0
 134.514648438 554.545898438 148.150390625 588.63671875 273.150390625 668.181640625 c 0
 320.877929688 700 341.333007812 702.272460938 398.150390625 677.272460938 c 0
 461.787109375 650 470.877929688 652.272460938 539.059570312 727.272460938 c 0
682.241210938 554.545898438 m 0
 682.241210938 627.272460938 673.150390625 686.36328125 664.059570312 686.36328125 c 0
 616.333007812 686.36328125 591.333007812 620.454101562 591.333007812 488.63671875 c 2
 591.333007812 345.454101562 l 1
 518.60546875 354.545898438 l 2
 477.696289062 359.090820312 429.96875 363.63671875 416.333007812 365.909179688 c 0
 398.150390625 368.181640625 386.787109375 400 386.787109375 443.181640625 c 0
 386.787109375 481.818359375 375.423828125 531.818359375 364.059570312 550 c 0
 329.96875 604.545898438 264.059570312 547.727539062 252.696289062 456.818359375 c 0
 243.60546875 363.63671875 293.60546875 -59.0908203125 318.60546875 -75 c 0
 325.423828125 -79.5458984375 357.241210938 -68.181640625 384.514648438 -47.7275390625 c 0
 429.96875 -18.181640625 434.514648438 4.5458984375 427.696289062 115.909179688 c 2
 420.877929688 243.181640625 l 1
 502.696289062 250 l 1
 584.514648438 256.818359375 l 1
 598.150390625 136.36328125 l 2
 607.241210938 70.4541015625 607.241210938 -6.818359375 600.423828125 -36.36328125 c 0
 579.96875 -106.818359375 648.150390625 -102.272460938 695.877929688 -29.5458984375 c 0
 725.423828125 15.9091796875 729.96875 59.0908203125 720.877929688 163.63671875 c 0
 711.787109375 243.181640625 714.059570312 304.545898438 727.696289062 311.36328125 c 0
 741.333007812 320.454101562 736.787109375 345.454101562 716.333007812 375 c 0
 695.877929688 404.545898438 682.241210938 475 682.241210938 554.545898438 c 0
EndSplineSet
Validated: 33
EndChar

StartChar: i
Encoding: 105 105 44
Width: 1000
Flags: W
VStem: 564.368 106.817<68.8101 593.954>
LayerCount: 2
Fore
SplineSet
443.913085938 727.272460938 m 0
 523.458984375 788.63671875 550.731445312 788.63671875 612.094726562 738.63671875 c 0
 655.27734375 702.272460938 659.822265625 665.909179688 671.185546875 334.090820312 c 0
 684.822265625 -52.2724609375 682.549804688 -61.36328125 571.185546875 -138.63671875 c 0
 491.640625 -193.181640625 423.458984375 -186.36328125 371.185546875 -120.454101562 c 0
 330.27734375 -70.4541015625 325.731445312 -25 323.458984375 272.727539062 c 0
 321.185546875 627.272460938 323.458984375 634.090820312 443.913085938 727.272460938 c 0
550.731445312 659.090820312 m 0
 546.185546875 677.272460938 505.27734375 656.818359375 473.458984375 622.727539062 c 0
 418.913085938 563.63671875 416.640625 -34.0908203125 468.913085938 -54.5458984375 c 0
 487.094726562 -63.63671875 518.913085938 -54.5458984375 539.368164062 -38.63671875 c 0
 571.185546875 -13.63671875 573.458984375 36.36328125 564.368164062 322.727539062 c 0
 557.549804688 504.545898438 550.731445312 654.545898438 550.731445312 659.090820312 c 0
EndSplineSet
Validated: 33
EndChar

StartChar: j
Encoding: 106 106 45
Width: 1000
Flags: W
HStem: -36.3633 106.817<158.229 373.968>
LayerCount: 2
Fore
SplineSet
461.36328125 650 m 0
 613.635742188 815.909179688 713.635742188 786.36328125 768.181640625 563.63671875 c 0
 800 436.36328125 847.727539062 336.36328125 909.090820312 270.454101562 c 0
 963.635742188 211.36328125 963.635742188 136.36328125 911.36328125 88.63671875 c 0
 888.635742188 68.181640625 761.36328125 -4.5458984375 625 -75 c 0
 420.454101562 -179.545898438 361.36328125 -200 261.36328125 -200 c 0
 113.635742188 -200 34.0908203125 -134.090820312 52.2724609375 -29.5458984375 c 0
 70.4541015625 68.181640625 118.181640625 104.545898438 195.454101562 84.0908203125 c 0
 229.544921875 72.7275390625 279.544921875 68.181640625 304.544921875 70.4541015625 c 0
 370.454101562 77.2724609375 588.635742188 186.36328125 588.635742188 211.36328125 c 0
 588.635742188 225 572.727539062 263.63671875 554.544921875 300 c 0
 531.818359375 343.181640625 509.090820312 361.36328125 479.544921875 354.545898438 c 0
 422.727539062 338.63671875 329.544921875 440.909179688 347.727539062 500 c 0
 356.818359375 525 406.818359375 593.181640625 461.36328125 650 c 0
659.090820312 545.454101562 m 0
 643.181640625 597.727539062 618.181640625 640.909179688 602.272460938 640.909179688 c 0
 565.909179688 640.909179688 440.909179688 484.090820312 461.36328125 465.909179688 c 0
 468.181640625 456.818359375 493.181640625 470.454101562 518.181640625 490.909179688 c 0
 561.36328125 529.545898438 563.635742188 525 652.272460938 345.454101562 c 2
 743.181640625 161.36328125 l 1
 693.181640625 129.545898438 l 2
 547.727539062 34.0908203125 334.090820312 -45.4541015625 247.727539062 -36.36328125 c 0
 186.36328125 -31.818359375 156.818359375 -36.36328125 156.818359375 -56.818359375 c 0
 156.818359375 -95.4541015625 236.36328125 -115.909179688 322.727539062 -97.7275390625 c 0
 379.544921875 -84.0908203125 727.272460938 84.0908203125 845.454101562 156.818359375 c 0
 856.818359375 163.63671875 845.454101562 190.909179688 820.454101562 218.181640625 c 0
 761.36328125 281.818359375 690.909179688 425 659.090820312 545.454101562 c 0
EndSplineSet
Validated: 33
EndChar

StartChar: k
Encoding: 107 107 46
Width: 1000
Flags: W
VStem: 380.51 129.545<419.637 496.488>
LayerCount: 2
Fore
SplineSet
264.600585938 702.272460938 m 0
 316.873046875 761.36328125 396.418945312 756.818359375 464.600585938 695.454101562 c 0
 505.509765625 659.090820312 510.0546875 659.090820312 548.69140625 693.181640625 c 0
 644.145507812 779.545898438 780.509765625 713.63671875 780.509765625 581.818359375 c 0
 780.509765625 529.545898438 794.145507812 497.727539062 825.963867188 481.818359375 c 0
 882.782226562 452.272460938 882.782226562 388.63671875 825.963867188 227.272460938 c 0
 800.963867188 156.818359375 778.237304688 50 775.963867188 -6.818359375 c 0
 773.69140625 -88.63671875 762.328125 -120.454101562 721.418945312 -145.454101562 c 0
 641.873046875 -200 521.418945312 -211.36328125 487.328125 -168.181640625 c 0
 464.600585938 -143.181640625 435.0546875 -136.36328125 373.69140625 -145.454101562 c 0
 250.963867188 -165.909179688 200.963867188 -100 157.782226562 140.909179688 c 0
 105.509765625 443.181640625 125.963867188 550 264.600585938 702.272460938 c 0
380.509765625 497.727539062 m 0
 391.873046875 638.63671875 369.145507812 665.909179688 307.782226562 579.545898438 c 0
 237.328125 479.545898438 230.509765625 425 257.782226562 238.63671875 c 0
 296.418945312 -6.818359375 314.600585938 -50 369.145507812 -18.181640625 c 0
 403.237304688 -2.2724609375 416.873046875 34.0908203125 421.418945312 111.36328125 c 0
 428.237304688 211.36328125 432.782226562 218.181640625 516.873046875 247.727539062 c 0
 566.873046875 263.63671875 610.0546875 275 614.600585938 270.454101562 c 0
 619.145507812 265.909179688 605.509765625 218.181640625 587.328125 163.63671875 c 0
 535.0546875 18.181640625 541.873046875 -45.4541015625 605.509765625 -36.36328125 c 0
 646.418945312 -31.818359375 657.782226562 -11.36328125 669.145507812 84.0908203125 c 0
 678.237304688 147.727539062 700.963867188 236.36328125 721.418945312 286.36328125 c 0
 741.873046875 334.090820312 753.237304688 381.818359375 746.418945312 390.909179688 c 0
 739.600585938 402.272460938 698.69140625 400 653.237304688 386.36328125 c 0
 607.782226562 375 566.873046875 370.454101562 560.0546875 377.272460938 c 0
 553.237304688 384.090820312 573.69140625 431.818359375 607.782226562 481.818359375 c 0
 669.145507812 572.727539062 680.509765625 618.181640625 648.69140625 618.181640625 c 0
 623.69140625 618.181640625 546.418945312 529.545898438 510.0546875 459.090820312 c 0
 496.418945312 427.272460938 466.873046875 381.818359375 448.69140625 356.818359375 c 0
 398.69140625 288.63671875 366.873046875 352.272460938 380.509765625 497.727539062 c 0
EndSplineSet
Validated: 33
EndChar

StartChar: l
Encoding: 108 108 47
Width: 1000
Flags: W
HStem: -86.3633 113.636<603.296 769.981>
VStem: 65.2803 125<-2.25106 519.161> 349.371 129.545<214.321 661.363>
LayerCount: 2
Fore
SplineSet
208.461914062 752.272460938 m 0
 303.916015625 809.090820312 363.006835938 811.36328125 431.189453125 763.63671875 c 0
 478.916015625 731.818359375 483.461914062 709.090820312 478.916015625 586.36328125 c 0
 476.643554688 511.36328125 476.643554688 395.454101562 478.916015625 329.545898438 c 2
 481.189453125 213.63671875 l 1
 647.09765625 225 l 2
 790.280273438 234.090820312 817.552734375 231.818359375 874.37109375 186.36328125 c 0
 933.461914062 138.63671875 953.916015625 63.63671875 917.552734375 13.63671875 c 0
 885.734375 -34.0908203125 788.006835938 -86.36328125 731.189453125 -86.36328125 c 0
 699.37109375 -86.36328125 576.643554688 -111.36328125 458.461914062 -140.909179688 c 0
 272.09765625 -186.36328125 235.734375 -190.909179688 183.461914062 -163.63671875 c 0
 94.8251953125 -120.454101562 69.8251953125 -27.2724609375 65.2802734375 234.090820312 c 0
 60.734375 645.454101562 67.552734375 665.909179688 208.461914062 752.272460938 c 0
349.37109375 443.181640625 m 0
 356.189453125 640.909179688 351.643554688 663.63671875 317.552734375 663.63671875 c 0
 294.825195312 663.63671875 253.916015625 640.909179688 228.916015625 615.909179688 c 0
 183.461914062 570.454101562 181.189453125 550 190.280273438 275 c 0
 194.825195312 93.181640625 208.461914062 -27.2724609375 226.643554688 -45.4541015625 c 0
 247.09765625 -65.9091796875 292.552734375 -59.0908203125 422.09765625 -22.7275390625 c 0
 515.280273438 4.5458984375 626.643554688 27.2724609375 667.552734375 27.2724609375 c 0
 710.734375 27.2724609375 765.280273438 40.9091796875 788.006835938 59.0908203125 c 0
 828.916015625 88.63671875 826.643554688 90.9091796875 758.461914062 106.818359375 c 0
 719.825195312 113.63671875 667.552734375 115.909179688 647.09765625 109.090820312 c 0
 624.37109375 102.272460938 553.916015625 90.9091796875 488.006835938 84.0908203125 c 2
 369.825195312 70.4541015625 l 1
 356.189453125 147.727539062 l 2
 347.09765625 188.63671875 344.825195312 322.727539062 349.37109375 443.181640625 c 0
EndSplineSet
Validated: 33
EndChar

StartChar: m
Encoding: 109 109 48
Width: 1000
Flags: W
VStem: 572.69 97.7275<-24.0252 69.6315> 586.327 84.0908<276.671 410.58>
LayerCount: 2
Fore
SplineSet
579.508789062 745.454101562 m 0x80
 631.78125 811.36328125 752.236328125 820.454101562 804.508789062 761.36328125 c 0
 827.236328125 734.090820312 847.690429688 625 865.872070312 436.36328125 c 0
 881.78125 279.545898438 902.236328125 109.090820312 911.327148438 59.0908203125 c 0
 934.053710938 -59.0908203125 913.599609375 -97.7275390625 799.962890625 -154.545898438 c 0
 724.962890625 -193.181640625 702.236328125 -195.454101562 663.599609375 -172.727539062 c 0
 618.14453125 -145.454101562 572.690429688 -29.5458984375 572.690429688 56.818359375 c 0
 572.690429688 86.36328125 543.14453125 75 427.236328125 -6.818359375 c 0
 265.872070312 -118.181640625 209.053710938 -131.818359375 145.41796875 -68.181640625 c 0
 111.327148438 -34.0908203125 102.236328125 13.63671875 99.962890625 200 c 0
 97.6904296875 322.727539062 90.8720703125 452.272460938 84.0537109375 484.090820312 c 0
 72.6904296875 531.818359375 86.3271484375 556.818359375 152.236328125 615.909179688 c 0
 197.690429688 654.545898438 256.78125 686.36328125 288.599609375 686.36328125 c 0
 343.14453125 686.36328125 436.327148438 593.181640625 436.327148438 536.36328125 c 0
 436.327148438 472.727539062 474.962890625 506.818359375 504.508789062 597.727539062 c 0
 522.690429688 650 554.508789062 715.909179688 579.508789062 745.454101562 c 0x80
743.14453125 579.545898438 m 0
 731.78125 670.454101562 718.14453125 709.090820312 695.41796875 709.090820312 c 0
 663.599609375 709.090820312 645.41796875 675 527.236328125 386.36328125 c 0
 497.690429688 313.63671875 465.872070312 254.545898438 456.78125 254.545898438 c 0
 449.962890625 254.545898438 411.327148438 325 377.236328125 413.63671875 c 0
 309.053710938 575 265.872070312 609.090820312 209.053710938 538.63671875 c 0
 179.508789062 502.272460938 199.962890625 4.5458984375 231.78125 4.5458984375 c 0
 293.14453125 4.5458984375 322.690429688 38.63671875 322.690429688 111.36328125 c 2
 322.690429688 190.909179688 l 1
 363.599609375 140.909179688 l 1
 404.508789062 90.9091796875 l 1
 477.236328125 152.272460938 l 2
 527.236328125 195.454101562 561.327148438 252.272460938 586.327148438 340.909179688 c 0
 606.78125 413.63671875 631.78125 479.545898438 640.872070312 488.63671875 c 0
 649.962890625 497.727539062 663.599609375 381.818359375 670.41796875 229.545898438 c 0x40
 677.236328125 77.2724609375 693.14453125 -56.818359375 702.236328125 -65.9091796875 c 0
 713.599609375 -77.2724609375 743.14453125 -70.4541015625 768.14453125 -52.2724609375 c 0
 813.599609375 -20.4541015625 813.599609375 -13.63671875 786.327148438 213.63671875 c 0
 770.41796875 343.181640625 749.962890625 506.818359375 743.14453125 579.545898438 c 0
EndSplineSet
Validated: 33
EndChar

StartChar: n
Encoding: 110 110 49
Width: 1000
Flags: W
LayerCount: 2
Fore
SplineSet
431.181640625 718.181640625 m 0
 522.090820312 768.181640625 583.455078125 761.36328125 665.2734375 693.181640625 c 0
 783.455078125 593.181640625 822.090820312 477.272460938 813 252.272460938 c 0
 808.455078125 147.727539062 792.545898438 36.36328125 778.909179688 4.5458984375 c 0
 738 -81.818359375 608.455078125 -163.63671875 533.455078125 -147.727539062 c 0
 494.818359375 -140.909179688 451.63671875 -147.727539062 426.63671875 -168.181640625 c 0
 367.545898438 -211.36328125 278.909179688 -209.090820312 226.63671875 -161.36328125 c 0
 192.545898438 -129.545898438 185.727539062 -88.63671875 185.727539062 143.181640625 c 2
 185.727539062 411.36328125 l 1
 263 486.36328125 l 2
 303.909179688 527.272460938 344.818359375 588.63671875 353.909179688 622.727539062 c 0
 360.727539062 656.818359375 397.090820312 700 431.181640625 718.181640625 c 0
626.63671875 570.454101562 m 0
 565.2734375 645.454101562 528.909179688 656.818359375 488 615.909179688 c 0
 467.545898438 595.454101562 476.63671875 565.909179688 522.090820312 500 c 0
 565.2734375 434.090820312 583.455078125 372.727539062 590.2734375 270.454101562 c 2
 597.090820312 129.545898438 l 1
 499.364257812 284.090820312 l 2
 447.090820312 368.181640625 390.2734375 436.36328125 374.364257812 436.36328125 c 0
 358.455078125 436.36328125 328.909179688 411.36328125 308.455078125 379.545898438 c 0
 278.909179688 331.818359375 274.364257812 288.63671875 288 118.181640625 c 0
 297.090820312 6.818359375 313 -86.36328125 322.090820312 -86.36328125 c 0
 383.455078125 -86.36328125 413 -52.2724609375 413 18.181640625 c 0
 413 113.63671875 435.727539062 115.909179688 488 27.2724609375 c 0
 535.727539062 -50 569.818359375 -56.818359375 638 0 c 0
 678.909179688 31.818359375 690.2734375 70.4541015625 701.63671875 211.36328125 c 0
 717.545898438 418.181640625 703.909179688 477.272460938 626.63671875 570.454101562 c 0
EndSplineSet
Validated: 33
EndChar

StartChar: o
Encoding: 111 111 50
Width: 1000
Flags: W
LayerCount: 2
Fore
SplineSet
395.201171875 752.272460938 m 0
 574.74609375 802.272460938 772.473632812 720.454101562 888.3828125 552.272460938 c 0
 1029.29199219 345.454101562 886.110351562 -11.36328125 613.3828125 -134.090820312 c 0
 438.3828125 -213.63671875 263.3828125 -168.181640625 127.018554688 -2.2724609375 c 0
 65.6552734375 70.4541015625 56.564453125 102.272460938 56.564453125 213.63671875 c 0
 56.564453125 286.36328125 72.4736328125 388.63671875 92.927734375 440.909179688 c 0
 142.927734375 570.454101562 292.927734375 722.727539062 395.201171875 752.272460938 c 0
638.3828125 604.545898438 m 0
 461.110351562 688.63671875 302.018554688 609.090820312 213.3828125 388.63671875 c 0
 147.473632812 225 156.564453125 150 258.836914062 47.7275390625 c 0
 329.291992188 -25 363.3828125 -40.9091796875 431.564453125 -40.9091796875 c 0
 558.836914062 -40.9091796875 702.018554688 52.2724609375 758.836914062 170.454101562 c 0
 849.74609375 359.090820312 804.291992188 525 638.3828125 604.545898438 c 0
399.74609375 543.181640625 m 0
 431.564453125 579.545898438 542.927734375 581.818359375 604.291992188 550 c 0
 627.018554688 536.36328125 663.3828125 495.454101562 681.564453125 459.090820312 c 0
 752.018554688 322.727539062 692.927734375 109.090820312 577.018554688 86.36328125 c 0
 456.564453125 63.63671875 338.3828125 143.181640625 315.655273438 265.909179688 c 0
 304.291992188 336.36328125 345.201171875 477.272460938 399.74609375 543.181640625 c 0
EndSplineSet
Validated: 33
EndChar

StartChar: p
Encoding: 112 112 51
Width: 1000
Flags: W
VStem: 459.455 114.772<431.52 552.549> 703.773 79.5449<496.741 652.151>
LayerCount: 2
Fore
SplineSet
499.227539062 730.681640625 m 0
 543.545898438 747.727539062 666.2734375 745.454101562 703.7734375 726.13671875 c 0
 746.955078125 703.409179688 783.318359375 651.13671875 783.318359375 607.954101562 c 0
 783.318359375 507.954101562 728.7734375 384.090820312 628.7734375 259.090820312 c 2
 566.2734375 181.818359375 l 1
 574.227539062 53.4091796875 l 2
 583.318359375 -93.181640625 575.364257812 -115.909179688 499.227539062 -154.545898438 c 0
 435.591796875 -186.36328125 367.409179688 -185.227539062 336.727539062 -150 c 0
 311.727539062 -121.590820312 289 -2.2724609375 260.591796875 243.181640625 c 0
 254.909179688 296.590820312 241.2734375 365.909179688 229.909179688 398.86328125 c 0
 214 446.590820312 212.864257812 463.63671875 224.227539062 487.5 c 0
 232.182617188 503.409179688 237.864257812 526.13671875 237.864257812 537.5 c 0
 237.864257812 564.772460938 326.5 695.454101562 359.455078125 717.045898438 c 0
 376.5 728.409179688 398.091796875 731.818359375 427.63671875 726.13671875 c 0
 451.5 722.727539062 484.455078125 723.86328125 499.227539062 730.681640625 c 0
682.182617188 652.272460938 m 0
 651.5 668.181640625 549.227539062 665.909179688 491.2734375 647.727539062 c 0
 465.13671875 638.63671875 432.182617188 634.090820312 417.409179688 637.5 c 0
 396.955078125 640.909179688 384.455078125 630.681640625 356.045898438 587.5 c 0
 318.545898438 528.409179688 301.5 456.818359375 317.409179688 427.272460938 c 0
 321.955078125 415.909179688 335.591796875 342.045898438 344.682617188 260.227539062 c 0
 361.727539062 129.545898438 377.63671875 17.0458984375 392.409179688 -61.36328125 c 0
 398.091796875 -92.0458984375 440.13671875 -95.4541015625 475.364257812 -65.9091796875 c 0
 498.091796875 -47.7275390625 498.091796875 -39.7724609375 490.13671875 84.0908203125 c 2
 481.045898438 214.772460938 l 1
 534.455078125 272.727539062 l 2
 643.545898438 394.318359375 703.7734375 506.818359375 703.7734375 595.454101562 c 0
 703.7734375 628.409179688 698.091796875 643.181640625 682.182617188 652.272460938 c 0
473.091796875 548.86328125 m 0
 484.455078125 555.681640625 510.591796875 561.36328125 529.909179688 561.36328125 c 0
 559.455078125 561.36328125 568.545898438 555.681640625 574.227539062 534.090820312 c 0
 577.63671875 518.181640625 575.364257812 488.63671875 568.545898438 468.181640625 c 0
 548.091796875 409.090820312 486.727539062 307.954101562 476.5 318.181640625 c 0
 471.955078125 323.86328125 464 375 459.455078125 432.954101562 c 0
 452.63671875 526.13671875 453.7734375 537.5 473.091796875 548.86328125 c 0
EndSplineSet
Validated: 33
EndChar

StartChar: q
Encoding: 113 113 52
Width: 1000
Flags: W
LayerCount: 2
Fore
SplineSet
428.180664062 740.909179688 m 0
 519.08984375 772.727539062 614.543945312 759.090820312 684.999023438 704.545898438 c 0
 864.543945312 570.454101562 925.908203125 318.181640625 814.543945312 175 c 2
 759.999023438 102.272460938 l 1
 814.543945312 50 l 2
 844.08984375 22.7275390625 866.81640625 -22.7275390625 866.81640625 -50 c 0
 862.271484375 -118.181640625 782.725585938 -200 719.08984375 -200 c 0
 637.271484375 -200 514.543945312 -140.909179688 480.453125 -86.36328125 c 0
 464.543945312 -59.0908203125 407.725585938 -18.181640625 355.453125 6.818359375 c 0
 225.908203125 61.36328125 119.08984375 211.36328125 130.453125 313.63671875 c 0
 137.271484375 354.545898438 146.362304688 400 155.453125 413.63671875 c 0
 162.271484375 427.272460938 175.908203125 465.909179688 180.453125 500 c 0
 196.362304688 581.818359375 319.08984375 704.545898438 428.180664062 740.909179688 c 0
653.180664062 597.727539062 m 0
 594.08984375 647.727539062 532.725585938 659.090820312 446.362304688 636.36328125 c 0
 334.999023438 606.818359375 221.362304688 436.36328125 314.543945312 436.36328125 c 0
 332.725585938 436.36328125 362.271484375 468.181640625 382.725585938 504.545898438 c 0
 419.08984375 577.272460938 459.999023438 588.63671875 532.725585938 550 c 0
 621.362304688 502.272460938 673.634765625 315.909179688 621.362304688 231.818359375 c 0
 596.362304688 193.181640625 596.362304688 195.454101562 544.08984375 306.818359375 c 0
 500.908203125 402.272460938 484.999023438 409.090820312 430.453125 347.727539062 c 0
 398.634765625 313.63671875 396.362304688 293.181640625 416.81640625 256.818359375 c 0
 453.180664062 186.36328125 394.08984375 193.181640625 325.908203125 265.909179688 c 0
 278.180664062 315.909179688 273.634765625 331.818359375 298.634765625 370.454101562 c 0
 325.908203125 413.63671875 323.634765625 413.63671875 280.453125 390.909179688 c 0
 209.999023438 352.272460938 223.634765625 261.36328125 312.271484375 172.727539062 c 0
 355.453125 129.545898438 409.999023438 95.4541015625 437.271484375 95.4541015625 c 0
 466.81640625 95.4541015625 505.453125 65.9091796875 534.999023438 15.9091796875 c 0
 589.543945312 -65.9091796875 698.634765625 -109.090820312 739.543945312 -68.181640625 c 0
 757.725585938 -50 746.362304688 -22.7275390625 703.180664062 27.2724609375 c 0
 630.453125 115.909179688 628.180664062 140.909179688 700.908203125 209.090820312 c 0
 794.08984375 297.727539062 769.08984375 495.454101562 653.180664062 597.727539062 c 0
EndSplineSet
Validated: 33
EndChar

StartChar: r
Encoding: 114 114 53
Width: 1000
Flags: W
HStem: 220.454 79.5459<614.265 680.205>
VStem: 406.519 80.6816<20.0307 60.7158>
LayerCount: 2
Fore
SplineSet
424.700195312 728.409179688 m 0
 498.564453125 746.590820312 589.473632812 739.772460938 650.836914062 709.090820312 c 0
 711.064453125 680.681640625 744.018554688 619.318359375 733.791015625 554.545898438 c 0
 724.700195312 502.272460938 676.973632812 404.545898438 639.473632812 364.772460938 c 0
 611.064453125 332.954101562 603.109375 300 625.836914062 300 c 0
 663.336914062 300 820.155273438 225 845.155273438 195.454101562 c 0
 884.927734375 148.86328125 883.791015625 81.818359375 844.018554688 44.318359375 c 0
 787.200195312 -7.9541015625 755.3828125 -10.2275390625 620.155273438 27.2724609375 c 0
 553.109375 45.4541015625 496.291015625 61.36328125 492.8828125 61.36328125 c 0
 489.473632812 61.36328125 487.200195312 50 487.200195312 35.2275390625 c 0
 487.200195312 -4.5458984375 457.655273438 -38.63671875 396.291015625 -69.318359375 c 0
 320.155273438 -107.954101562 255.3828125 -107.954101562 230.3828125 -68.181640625 c 0
 206.518554688 -31.818359375 173.564453125 122.727539062 157.655273438 270.454101562 c 0
 151.973632812 331.818359375 140.609375 402.272460938 132.655273438 427.272460938 c 0
 122.427734375 463.63671875 122.427734375 477.272460938 138.336914062 511.36328125 c 0
 148.564453125 532.954101562 157.655273438 556.818359375 157.655273438 564.772460938 c 0
 157.655273438 609.090820312 300.836914062 696.590820312 424.700195312 728.409179688 c 0
574.700195312 657.954101562 m 0
 542.8828125 667.045898438 514.473632812 675 511.064453125 673.86328125 c 0
 447.427734375 663.63671875 298.564453125 602.272460938 257.655273438 569.318359375 c 0
 228.109375 545.454101562 198.564453125 461.36328125 212.200195312 444.318359375 c 0
 219.018554688 436.36328125 228.109375 389.772460938 231.518554688 339.772460938 c 0
 238.336914062 261.36328125 247.427734375 200 279.24609375 18.181640625 c 0
 288.336914062 -34.0908203125 319.018554688 -30.681640625 406.518554688 34.0908203125 c 0
 408.791015625 36.36328125 404.24609375 62.5 396.291015625 94.318359375 c 0
 374.700195312 186.36328125 369.018554688 186.36328125 605.3828125 113.63671875 c 0
 738.336914062 72.7275390625 767.8828125 70.4541015625 794.018554688 101.13671875 c 0
 816.74609375 128.409179688 788.336914062 157.954101562 706.518554688 189.772460938 c 0
 663.336914062 206.818359375 624.700195312 220.454101562 621.291015625 220.454101562 c 0
 607.655273438 220.454101562 464.473632812 287.5 464.473632812 294.318359375 c 0
 464.473632812 297.727539062 497.427734375 331.818359375 537.200195312 371.590820312 c 0
 641.74609375 473.86328125 686.064453125 576.13671875 646.291015625 623.86328125 c 0
 638.336914062 632.954101562 606.518554688 648.86328125 574.700195312 657.954101562 c 0
399.700195312 577.272460938 m 0
 489.473632812 617.045898438 575.836914062 585.227539062 559.927734375 518.181640625 c 0
 542.8828125 452.272460938 479.24609375 375 420.155273438 350 c 0
 396.291015625 339.772460938 376.973632812 337.5 370.155273438 344.318359375 c 0
 356.518554688 357.954101562 345.155273438 494.318359375 355.3828125 531.818359375 c 0
 359.927734375 550 375.836914062 567.045898438 399.700195312 577.272460938 c 0
464.473632812 493.181640625 m 0
 473.564453125 510.227539062 473.564453125 515.909179688 461.064453125 515.909179688 c 0
 441.74609375 515.909179688 430.3828125 504.545898438 430.3828125 485.227539062 c 0
 430.3828125 462.5 450.836914062 467.045898438 464.473632812 493.181640625 c 0
EndSplineSet
Validated: 33
EndChar

StartChar: s
Encoding: 115 115 54
Width: 1000
Flags: W
HStem: 390.909 113.637<458.924 615.635>
LayerCount: 2
Fore
SplineSet
456.809570312 711.36328125 m 0
 529.536132812 734.090820312 622.71875 752.272460938 665.900390625 752.272460938 c 0
 809.08203125 754.545898438 870.4453125 636.36328125 790.900390625 515.909179688 c 0
 756.809570312 463.63671875 756.809570312 459.090820312 790.900390625 459.090820312 c 0
 852.263671875 459.090820312 934.08203125 393.181640625 963.627929688 322.727539062 c 0
 988.627929688 263.63671875 984.08203125 243.181640625 934.08203125 156.818359375 c 0
 865.900390625 38.63671875 727.263671875 -88.63671875 606.809570312 -150 c 0
 447.71875 -231.818359375 199.991210938 -195.454101562 102.263671875 -77.2724609375 c 0
 56.8095703125 -25 31.8095703125 115.909179688 56.8095703125 179.545898438 c 0
 70.4453125 218.181640625 68.1728515625 254.545898438 43.1728515625 300 c 0
 6.8095703125 370.454101562 13.6279296875 411.36328125 84.08203125 511.36328125 c 0
 131.809570312 579.545898438 252.263671875 645.454101562 456.809570312 711.36328125 c 0
713.627929688 625 m 0
 713.627929688 652.272460938 638.627929688 640.909179688 474.991210938 586.36328125 c 0
 252.263671875 513.63671875 199.991210938 484.090820312 165.900390625 422.727539062 c 0
 122.71875 340.909179688 154.536132812 322.727539062 420.4453125 284.090820312 c 0
 679.536132812 245.454101562 731.809570312 218.181640625 693.172851562 145.454101562 c 0
 622.71875 13.63671875 213.627929688 22.7275390625 213.627929688 154.545898438 c 0
 213.627929688 172.727539062 202.263671875 181.818359375 190.900390625 175 c 0
 152.263671875 150 165.900390625 29.5458984375 211.354492188 -15.9091796875 c 0
 263.627929688 -68.181640625 393.172851562 -97.7275390625 477.263671875 -77.2724609375 c 0
 645.4453125 -34.0908203125 886.354492188 215.909179688 836.354492188 295.454101562 c 0
 809.08203125 336.36328125 756.809570312 352.272460938 515.900390625 390.909179688 c 0
 424.991210938 406.818359375 349.991210938 425 349.991210938 434.090820312 c 0
 349.991210938 454.545898438 506.809570312 504.545898438 570.4453125 504.545898438 c 0
 611.354492188 504.545898438 713.627929688 590.909179688 713.627929688 625 c 0
EndSplineSet
Validated: 33
EndChar

StartChar: t
Encoding: 116 116 55
Width: 1000
Flags: W
VStem: 875 113.637<604.981 659.121>
LayerCount: 2
Fore
SplineSet
615.908203125 738.63671875 m 0
 727.2734375 754.545898438 838.63671875 770.454101562 863.63671875 772.727539062 c 0
 925 777.272460938 988.63671875 713.63671875 988.63671875 645.454101562 c 0
 988.63671875 577.272460938 847.7265625 436.36328125 777.2734375 434.090820312 c 0
 715.908203125 431.818359375 625 418.181640625 584.08984375 402.272460938 c 0
 559.08984375 393.181640625 556.818359375 347.727539062 570.455078125 186.36328125 c 0
 584.08984375 6.818359375 579.544921875 -25 545.455078125 -63.63671875 c 0
 495.455078125 -120.454101562 425 -120.454101562 356.818359375 -68.181640625 c 0
 309.08984375 -31.818359375 284.08984375 38.63671875 229.544921875 279.545898438 c 0
 218.181640625 329.545898438 206.818359375 336.36328125 152.2734375 327.272460938 c 0
 75 315.909179688 11.36328125 370.454101562 11.36328125 445.454101562 c 0
 11.36328125 522.727539062 90.908203125 611.36328125 188.63671875 643.181640625 c 0
 234.08984375 659.090820312 295.455078125 684.090820312 322.7265625 702.272460938 c 0
 350 720.454101562 381.818359375 729.545898438 393.181640625 722.727539062 c 0
 404.544921875 715.909179688 504.544921875 722.727539062 615.908203125 738.63671875 c 0
875 645.454101562 m 0
 875 668.181640625 875 668.181640625 565.908203125 618.181640625 c 0
 313.63671875 579.545898438 147.7265625 520.454101562 129.544921875 463.63671875 c 0
 122.7265625 443.181640625 143.181640625 438.63671875 211.36328125 450 c 2
 304.544921875 463.63671875 l 1
 343.181640625 277.272460938 l 2
 365.908203125 172.727539062 402.2734375 68.181640625 427.2734375 40.9091796875 c 0
 468.181640625 -6.818359375 468.181640625 -2.2724609375 452.2734375 186.36328125 c 0
 445.455078125 293.181640625 436.36328125 404.545898438 434.08984375 434.090820312 c 0
 431.818359375 486.36328125 443.181640625 493.181640625 613.63671875 522.727539062 c 0
 781.818359375 552.272460938 875 595.454101562 875 645.454101562 c 0
EndSplineSet
Validated: 33
EndChar

StartChar: u
Encoding: 117 117 56
Width: 1000
Flags: W
VStem: 381.468 206.818<255.86 554.767> 715.559 113.637<25.0145 498.145>
LayerCount: 2
Fore
SplineSet
613.286132812 731.818359375 m 0
 708.741210938 788.63671875 804.1953125 790.909179688 833.741210938 736.36328125 c 0
 847.376953125 709.090820312 849.649414062 613.63671875 838.286132812 479.545898438 c 0
 829.1953125 361.36328125 824.649414062 245.454101562 829.1953125 220.454101562 c 0
 847.376953125 111.36328125 840.55859375 4.5458984375 813.286132812 -29.5458984375 c 0
 767.83203125 -84.0908203125 672.376953125 -127.272460938 615.55859375 -118.181640625 c 0
 588.286132812 -113.63671875 529.1953125 -131.818359375 483.741210938 -156.818359375 c 0
 372.376953125 -222.727539062 311.013671875 -193.181640625 229.1953125 -36.36328125 c 0
 176.922851562 65.9091796875 165.55859375 120.454101562 158.741210938 311.36328125 c 0
 149.649414062 536.36328125 149.649414062 538.63671875 213.286132812 604.545898438 c 0
 313.286132812 704.545898438 376.922851562 720.454101562 451.922851562 665.909179688 c 0
 504.1953125 627.272460938 515.55859375 625 526.922851562 652.272460938 c 0
 533.741210938 670.454101562 572.376953125 706.818359375 613.286132812 731.818359375 c 0
720.104492188 527.272460938 m 0
 731.467773438 595.454101562 738.286132812 654.545898438 736.013671875 656.818359375 c 0
 733.741210938 659.090820312 706.467773438 650 676.922851562 634.090820312 c 0
 611.013671875 600 590.55859375 538.63671875 588.286132812 356.818359375 c 0
 586.013671875 222.727539062 524.649414062 72.7275390625 474.649414062 72.7275390625 c 0
 438.286132812 72.7275390625 381.467773438 297.727539062 381.467773438 440.909179688 c 0
 381.467773438 579.545898438 365.55859375 597.727539062 306.467773438 531.818359375 c 0
 251.922851562 472.727539062 256.467773438 240.909179688 313.286132812 79.5458984375 c 0
 338.286132812 9.0908203125 367.83203125 -59.0908203125 379.1953125 -70.4541015625 c 0
 392.83203125 -84.0908203125 440.55859375 -50 504.1953125 15.9091796875 c 0
 604.1953125 118.181640625 608.741210938 120.454101562 608.741210938 63.63671875 c 0
 608.741210938 2.2724609375 640.55859375 -11.36328125 697.376953125 25 c 0
 722.376953125 40.9091796875 726.922851562 84.0908203125 715.55859375 225 c 0
 706.467773438 322.727539062 708.741210938 459.090820312 720.104492188 527.272460938 c 0
EndSplineSet
Validated: 33
EndChar

StartChar: v
Encoding: 118 118 57
Width: 1000
Flags: W
LayerCount: 2
Fore
SplineSet
673.178710938 765.909179688 m 0
 754.99609375 811.36328125 852.723632812 809.090820312 875.451171875 761.36328125 c 0
 907.26953125 697.727539062 886.814453125 600 827.723632812 529.545898438 c 0
 777.723632812 470.454101562 695.905273438 229.545898438 664.087890625 50 c 0
 650.451171875 -38.63671875 602.723632812 -104.545898438 511.814453125 -163.63671875 c 0
 427.723632812 -218.181640625 370.905273438 -177.272460938 307.26953125 -18.181640625 c 0
 279.99609375 50 223.178710938 175 182.26953125 259.090820312 c 0
 100.451171875 422.727539062 89.087890625 518.181640625 141.360351562 615.909179688 c 0
 177.723632812 686.36328125 229.99609375 718.181640625 300.451171875 711.36328125 c 0
 364.087890625 702.272460938 400.451171875 668.181640625 441.360351562 575 c 0
 464.087890625 520.454101562 479.99609375 504.545898438 486.814453125 527.272460938 c 0
 511.814453125 600 618.6328125 736.36328125 673.178710938 765.909179688 c 0
757.26953125 636.36328125 m 0
 804.99609375 700 768.6328125 702.272460938 700.451171875 638.63671875 c 0
 634.541992188 577.272460938 543.6328125 386.36328125 525.451171875 272.727539062 c 0
 516.360351562 225 502.723632812 186.36328125 493.6328125 186.36328125 c 0
 477.723632812 186.36328125 357.26953125 443.181640625 325.451171875 545.454101562 c 0
 302.723632812 615.909179688 250.451171875 606.818359375 232.26953125 529.545898438 c 0
 220.905273438 477.272460938 245.905273438 404.545898438 339.087890625 202.272460938 c 0
 450.451171875 -38.63671875 461.814453125 -56.818359375 498.178710938 -27.2724609375 c 0
 518.6328125 -6.818359375 552.723632812 86.36328125 573.178710938 181.818359375 c 0
 614.087890625 356.818359375 686.814453125 538.63671875 757.26953125 636.36328125 c 0
EndSplineSet
Validated: 33
EndChar

StartChar: w
Encoding: 119 119 58
Width: 1000
Flags: W
VStem: 265.836 88.6367<261.363 513.637>
LayerCount: 2
Fore
SplineSet
447.654296875 709.090820312 m 0
 529.47265625 790.909179688 659.017578125 761.36328125 806.745117188 631.818359375 c 0
 1011.29101562 452.272460938 1004.47265625 15.9091796875 797.654296875 -120.454101562 c 0
 711.291015625 -177.272460938 611.291015625 -168.181640625 545.381835938 -102.272460938 c 2
 488.563476562 -47.7275390625 l 1
 424.926757812 -113.63671875 l 2
 354.47265625 -184.090820312 256.745117188 -197.727539062 188.563476562 -147.727539062 c 0
 145.381835938 -115.909179688 77.2001953125 134.090820312 49.9267578125 356.818359375 c 0
 36.291015625 456.818359375 43.109375 497.727539062 81.7451171875 579.545898438 c 0
 156.745117188 736.36328125 279.47265625 761.36328125 365.8359375 636.36328125 c 0
 395.381835938 595.454101562 402.200195312 593.181640625 402.200195312 625 c 0
 402.200195312 645.454101562 422.654296875 684.090820312 447.654296875 709.090820312 c 0
674.926757812 590.909179688 m 0
 597.654296875 643.181640625 549.926757812 654.545898438 529.47265625 622.727539062 c 0
 524.926757812 613.63671875 559.017578125 540.909179688 609.017578125 459.090820312 c 0
 672.654296875 354.545898438 697.654296875 286.36328125 697.654296875 220.454101562 c 2
 697.654296875 131.818359375 l 1
 597.654296875 270.454101562 l 2
 540.8359375 345.454101562 481.745117188 413.63671875 465.8359375 418.181640625 c 0
 424.926757812 431.818359375 356.745117188 338.63671875 354.47265625 261.36328125 c 0
 354.47265625 227.272460938 345.381835938 177.272460938 336.291015625 154.545898438 c 0
 318.109375 104.545898438 265.8359375 368.181640625 265.8359375 513.63671875 c 0
 265.8359375 559.090820312 256.745117188 595.454101562 243.109375 595.454101562 c 0
 206.745117188 595.454101562 174.926757812 511.36328125 174.926757812 413.63671875 c 0
 174.926757812 306.818359375 238.563476562 -20.4541015625 263.563476562 -47.7275390625 c 0
 302.200195312 -86.36328125 359.017578125 -29.5458984375 395.381835938 86.36328125 c 0
 415.8359375 154.545898438 438.563476562 209.090820312 445.381835938 209.090820312 c 0
 452.200195312 209.090820312 497.654296875 152.272460938 545.381835938 84.0908203125 c 0
 593.109375 13.63671875 649.926757812 -40.9091796875 670.381835938 -40.9091796875 c 0
 772.654296875 -38.63671875 834.017578125 77.2724609375 834.017578125 261.36328125 c 0
 834.017578125 404.545898438 779.47265625 518.181640625 674.926757812 590.909179688 c 0
EndSplineSet
Validated: 33
EndChar

StartChar: x
Encoding: 120 120 59
Width: 1000
Flags: W
LayerCount: 2
Fore
SplineSet
605.794921875 750 m 0
 669.431640625 781.818359375 683.068359375 781.818359375 735.340820312 754.545898438 c 0
 794.431640625 720.454101562 796.704101562 561.36328125 737.61328125 529.545898438 c 0
 714.88671875 518.181640625 678.522460938 465.909179688 658.068359375 413.63671875 c 0
 623.977539062 322.727539062 623.977539062 320.454101562 673.977539062 302.272460938 c 0
 785.340820312 259.090820312 823.977539062 131.818359375 753.522460938 40.9091796875 c 0
 680.794921875 -52.2724609375 628.522460938 -70.4541015625 551.25 -31.818359375 c 0
 483.068359375 0 483.068359375 0 483.068359375 -63.63671875 c 0
 483.068359375 -177.272460938 344.431640625 -240.909179688 273.977539062 -159.090820312 c 0
 214.88671875 -93.181640625 210.340820312 -15.9091796875 255.794921875 115.909179688 c 0
 301.25 240.909179688 301.25 240.909179688 255.794921875 288.63671875 c 0
 192.159179688 354.545898438 196.704101562 461.36328125 267.159179688 536.36328125 c 0
 323.977539062 597.727539062 389.88671875 611.36328125 430.794921875 570.454101562 c 0
 448.977539062 552.272460938 469.431640625 570.454101562 505.794921875 636.36328125 c 0
 535.340820312 686.36328125 578.522460938 738.63671875 605.794921875 750 c 0
687.61328125 643.181640625 m 0
 687.61328125 654.545898438 673.977539062 663.63671875 655.794921875 663.63671875 c 0
 639.88671875 663.63671875 592.159179688 602.272460938 553.522460938 527.272460938 c 0
 512.61328125 452.272460938 473.977539062 390.909179688 469.431640625 390.909179688 c 0
 462.61328125 390.909179688 437.61328125 413.63671875 417.159179688 440.909179688 c 0
 392.159179688 470.454101562 362.61328125 484.090820312 339.88671875 475 c 0
 285.340820312 454.545898438 292.159179688 390.909179688 353.522460938 313.63671875 c 2
 408.068359375 247.727539062 l 1
 364.88671875 136.36328125 l 2
 319.431640625 13.63671875 312.61328125 -77.2724609375 346.704101562 -97.7275390625 c 0
 371.704101562 -113.63671875 383.068359375 -90.9091796875 401.25 27.2724609375 c 0
 426.25 168.181640625 448.977539062 184.090820312 528.522460938 106.818359375 c 0
 585.340820312 52.2724609375 605.794921875 45.4541015625 637.61328125 63.63671875 c 0
 687.61328125 95.4541015625 703.522460938 193.181640625 658.068359375 181.818359375 c 0
 639.88671875 177.272460938 598.977539062 206.818359375 567.159179688 245.454101562 c 2
 508.068359375 315.909179688 l 1
 576.25 461.36328125 l 2
 614.88671875 540.909179688 655.794921875 611.36328125 667.159179688 613.63671875 c 0
 678.522460938 618.181640625 687.61328125 631.818359375 687.61328125 643.181640625 c 0
EndSplineSet
Validated: 33
EndChar

StartChar: y
Encoding: 121 121 60
Width: 1000
Flags: W
HStem: 686.363 113.637<666.938 748.759>
LayerCount: 2
Fore
SplineSet
639.66796875 772.727539062 m 0
 664.66796875 786.36328125 701.03125 800 721.486328125 800 c 0
 776.03125 800 839.66796875 720.454101562 823.758789062 668.181640625 c 0
 814.66796875 643.181640625 773.758789062 452.272460938 730.577148438 240.909179688 c 0
 676.03125 -31.818359375 641.940429688 -150 614.66796875 -170.454101562 c 0
 564.66796875 -206.818359375 419.212890625 -209.090820312 382.849609375 -172.727539062 c 0
 348.758789062 -138.63671875 346.486328125 40.9091796875 380.577148438 63.63671875 c 0
 396.486328125 72.7275390625 382.849609375 100 346.486328125 138.63671875 c 0
 280.577148438 206.818359375 173.758789062 427.272460938 173.758789062 493.181640625 c 0
 176.03125 586.36328125 319.212890625 700 403.3046875 675 c 0
 430.577148438 665.909179688 464.66796875 627.272460938 480.577148438 588.63671875 c 2
 510.122070312 518.181640625 l 1
 535.122070312 606.818359375 l 2
 564.66796875 715.909179688 580.577148438 738.63671875 639.66796875 772.727539062 c 0
710.122070312 650 m 0
 719.212890625 672.727539062 712.395507812 686.36328125 691.940429688 686.36328125 c 0
 669.212890625 686.36328125 641.940429688 627.272460938 610.122070312 522.727539062 c 0
 528.3046875 250 505.577148438 240.909179688 426.03125 450 c 0
 380.577148438 565.909179688 344.212890625 588.63671875 301.03125 522.727539062 c 0
 273.758789062 477.272460938 312.395507812 350 385.122070312 247.727539062 c 0
 419.212890625 197.727539062 441.940429688 186.36328125 480.577148438 195.454101562 c 0
 530.577148438 209.090820312 530.577148438 204.545898438 507.849609375 106.818359375 c 0
 494.212890625 50 478.3046875 4.5458984375 469.212890625 4.5458984375 c 0
 460.122070312 4.5458984375 457.849609375 -20.4541015625 464.66796875 -52.2724609375 c 0
 469.212890625 -86.36328125 489.66796875 -109.090820312 514.66796875 -109.090820312 c 0
 562.395507812 -109.090820312 580.577148438 -43.181640625 648.758789062 350 c 0
 676.03125 495.454101562 703.3046875 629.545898438 710.122070312 650 c 0
EndSplineSet
Validated: 33
EndChar

StartChar: z
Encoding: 122 122 61
Width: 1000
Flags: W
HStem: -6.81836 129.546<637.701 851.27>
LayerCount: 2
Fore
SplineSet
547.146484375 754.545898438 m 0
 669.874023438 775 728.96484375 763.63671875 785.783203125 713.63671875 c 0
 842.6015625 661.36328125 833.510742188 595.454101562 744.874023438 459.090820312 c 0
 701.692382812 390.909179688 665.328125 327.272460938 665.328125 318.181640625 c 0
 665.328125 306.818359375 706.237304688 300 756.237304688 300 c 0
 892.6015625 300 960.783203125 245.454101562 960.783203125 140.909179688 c 0
 960.783203125 27.2724609375 915.328125 -6.818359375 758.510742188 -6.818359375 c 0
 658.510742188 -6.818359375 592.6015625 -25 451.692382812 -90.9091796875 c 0
 265.328125 -181.818359375 213.055664062 -190.909179688 142.6015625 -154.545898438 c 0
 53.96484375 -106.818359375 65.328125 -25 188.055664062 168.181640625 c 0
 265.328125 290.909179688 290.328125 345.454101562 263.055664062 334.090820312 c 0
 160.783203125 288.63671875 72.146484375 327.272460938 42.6015625 429.545898438 c 0
 31.2373046875 468.181640625 47.146484375 502.272460938 110.783203125 572.727539062 c 0
 197.146484375 665.909179688 310.783203125 713.63671875 547.146484375 754.545898438 c 0
710.783203125 631.818359375 m 0
 710.783203125 650 535.783203125 634.090820312 403.96484375 602.272460938 c 0
 274.418945312 572.727539062 138.055664062 479.545898438 172.146484375 445.454101562 c 0
 178.96484375 436.36328125 253.96484375 456.818359375 335.783203125 490.909179688 c 0
 485.783203125 550 551.692382812 563.63671875 551.692382812 534.090820312 c 0
 551.692382812 522.727539062 469.874023438 388.63671875 369.874023438 231.818359375 c 0
 269.874023438 75 199.418945312 -56.818359375 213.055664062 -61.36328125 c 0
 226.692382812 -65.9091796875 285.783203125 -43.181640625 342.6015625 -11.36328125 c 0
 488.055664062 65.9091796875 667.6015625 120.454101562 778.96484375 122.727539062 c 0
 853.96484375 122.727539062 865.328125 129.545898438 844.874023438 154.545898438 c 0
 810.783203125 195.454101562 708.510742188 195.454101562 551.692382812 154.545898438 c 0
 483.510742188 136.36328125 424.418945312 125 419.874023438 127.272460938 c 0
 417.6015625 131.818359375 481.237304688 243.181640625 563.055664062 377.272460938 c 0
 644.874023438 511.36328125 710.783203125 627.272460938 710.783203125 631.818359375 c 0
EndSplineSet
Validated: 33
EndChar
